<svg width="82" height="82" viewBox="0 0 82 82" fill="none" xmlns="http://www.w3.org/2000/svg">
<path d="M23.0634 18.3857C20.6465 20.0701 19.9338 22.8846 19.5615 25.6488C18.9661 30.0704 18.9462 34.5536 19.2417 38.9997C19.3884 41.2052 19.614 43.4051 19.8914 45.5978C20.135 47.5234 20.2546 49.8604 21.6773 51.3577" stroke="#F7931E" stroke-width="2.5" stroke-linecap="round" stroke-linejoin="round"/>
<path d="M45.6896 46.1361C45.6864 40.9301 42.99 35.7981 38.7046 32.842C38.5989 32.7691 38.4656 32.6947 38.3493 32.7493C38.233 32.8039 38.2804 33.0412 38.3998 32.9938" stroke="#F7931E" stroke-width="2.5" stroke-linecap="round" stroke-linejoin="round"/>
<path d="M33.7927 75.7801C34.8846 76.8999 37.4284 78.5634 38.8097 77.8111C39.8509 77.2442 43.3699 74.9084 44.439 74.3961" stroke="#F7931E" stroke-width="2.5" stroke-linecap="round" stroke-linejoin="round"/>
<path d="M24.8366 19.9122C20.338 32.0668 20.7545 42.7831 22.2055 55.6619" stroke="#F7931E" stroke-width="2.5" stroke-linecap="round" stroke-linejoin="round"/>
<path d="M52.9573 7.32097C49.3073 5.4713 44.5878 3.80571 40.5014 4.01838C36.4151 4.23105 32.2646 6.24015 30.2679 9.81182" stroke="#F7931E" stroke-width="2.5" stroke-linecap="round" stroke-linejoin="round"/>
<path d="M42.667 10.1293C41.6687 9.20664 40.2745 8.87843 38.9474 8.58419C38.4921 8.48329 38.0362 8.38221 37.5744 8.31636C35.2543 7.98547 32.814 8.59016 30.9169 9.96614" stroke="#F7931E" stroke-width="2.5" stroke-linecap="round" stroke-linejoin="round"/>
<path d="M36.8313 12.8232C35.22 11.1983 32.9576 10.3229 30.6811 10.0901C28.4047 9.85735 26.1041 10.2246 23.8915 10.8081C20.9649 11.5798 18.0744 12.7729 15.8511 14.8265C13.3849 17.1045 11.9098 20.3008 11.2009 23.5822C10.4921 26.8637 10.4955 30.2546 10.6087 33.6099C10.7872 38.8976 11.2308 44.1765 11.9372 49.4199C12.179 51.2143 12.457 53.0248 13.1425 54.7007C14.5566 58.1583 17.6111 60.7438 20.9895 62.3376" stroke="#F7931E" stroke-width="2.5" stroke-linecap="round" stroke-linejoin="round"/>
<path d="M24.8367 19.9122C23.2602 17.3684 18.7843 16.1209 16.1007 17.3085C14.0864 18.2 12.7283 20.3054 11.5924 22.0997" stroke="#F7931E" stroke-width="2.5" stroke-linecap="round" stroke-linejoin="round"/>
<path d="M35.05 24.1664C41.5092 21.1074 48.2833 17.8175 55.6304 13.6387" stroke="#F7931E" stroke-width="2.5" stroke-linecap="round" stroke-linejoin="round"/>
<path d="M55.7621 13.6023C56.6075 13.629 57.3366 14.4654 57.2478 15.3065" stroke="#F7931E" stroke-width="2.5" stroke-linecap="round" stroke-linejoin="round"/>
<path d="M46.6599 36.8266C50.9974 34.6077 55.9916 31.939 62.4686 28.0914" stroke="#F7931E" stroke-width="2.5" stroke-linecap="round" stroke-linejoin="round"/>
<path d="M62.5468 27.8592C63.0304 28.3161 63.3392 28.9535 63.398 29.6163" stroke="#F7931E" stroke-width="2.5" stroke-linecap="round" stroke-linejoin="round"/>
<path d="M50.7604 57.2056C55.6129 54.2507 60.7836 50.8806 66.0767 46.2651" stroke="#F7931E" stroke-width="2.5" stroke-linecap="round" stroke-linejoin="round"/>
<path d="M65.9094 46.2103C66.2412 45.9213 66.7411 46.2822 66.9814 46.6507C67.2331 47.0365 67.4286 47.4589 67.56 47.9004" stroke="#F7931E" stroke-width="2.5" stroke-linecap="round" stroke-linejoin="round"/>
<path d="M31.3304 76.3182C33.35 76.5742 35.6811 74.5593 35.6811 74.5593C35.9972 67.4988 35.9098 60.1042 35.8717 53.0367" stroke="#F7931E" stroke-width="2.5" stroke-linecap="round" stroke-linejoin="round"/>
<path d="M31.3303 76.3181C26.4015 74.0783 22.3979 70.3361 22.3979 70.3361C20.6645 63.4709 21.3165 56.0273 24.2171 49.568C24.3596 49.2508 24.9823 48.6371 25.2838 48.4638C25.6561 48.2497 26.1225 48.3424 26.5379 48.4512C29.8404 49.3165 33.1402 50.9885 35.8716 53.0367C35.8716 53.0367 32.5486 57.5151 31.5956 64.8997C30.6425 72.2843 31.3303 76.3181 31.3303 76.3181Z" stroke="#F7931E" stroke-width="2.5" stroke-linecap="round" stroke-linejoin="round"/>
<path d="M25.4852 52.8378C27.3909 53.9296 29.1336 54.7859 30.7468 55.4235" stroke="#F7931E" stroke-width="2.5" stroke-linecap="round" stroke-linejoin="round"/>
<path d="M31.3153 55.5764C31.0258 56.0775 30.8254 56.6298 30.7261 57.1999" stroke="#F7931E" stroke-width="2.5" stroke-linecap="round" stroke-linejoin="round"/>
<path d="M54.0019 63.4732C54.1395 63.2493 54.4388 63.0967 54.6403 62.9791C57.9984 61.018 61.2027 58.7622 64.1654 56.2422C64.8381 55.6701 65.4996 55.0847 66.1493 54.4865C66.4742 54.1874 66.7961 53.8851 67.115 53.5797C67.2235 53.4758 68.0929 52.7625 68.0624 52.6541C68.6807 54.8598 69.2649 57.3629 68.0836 59.3257C67.5859 60.1526 66.8239 60.7808 66.077 61.3919C62.8307 64.0474 59.5846 66.7031 56.3383 69.3587C55.9287 69.6926 55.5228 70.0337 55.1092 70.3611C55.3728 70.0558 55.4027 65.5341 54.2277 64.2416C54.0807 64.0788 53.9079 63.8961 53.9302 63.6779C53.9377 63.6036 53.9636 63.5356 54.0019 63.4732Z" stroke="#F7931E" stroke-width="2.5" stroke-linecap="round" stroke-linejoin="round"/>
<path d="M38.2597 77.8418C39.4413 68.4985 39.3646 59.7706 38.3781 50.4046C37.604 43.0545 36.103 35.6134 32.3488 29.2471C30.2729 25.7267 27.5633 22.6294 24.8705 19.5552C33.3331 14.3679 41.9586 9.38186 52.9572 7.32104C56.4787 9.23773 59.2117 12.3782 61.2464 15.8329C63.281 19.2876 64.9114 23.2886 66.2623 28.7377" stroke="#F7931E" stroke-width="2.5" stroke-linecap="round" stroke-linejoin="round"/>
<path d="M67.5637 34.3768C67.5637 34.3768 68.429 38.929 69.2744 46.1054" stroke="#F7931E" stroke-width="2.5" stroke-linecap="round" stroke-linejoin="round"/>
<path d="M35.9833 12.8869C35.9249 11.2054 33.9631 10.0339 33.9586 8.35144C33.957 7.74313 34.2221 7.16492 34.5421 6.64759C34.9161 6.04281 35.3848 5.47873 35.9953 5.11411C36.8931 4.57795 38.0565 4.53481 39.0087 4.9672C39.9609 5.3996 40.6859 6.28491 40.9613 7.29375C41.0943 7.78089 41.1309 8.29948 41.3515 8.75373C41.5687 9.20101 41.9584 9.57371 42.0478 10.0629" stroke="#D57F1A" stroke-width="2.5" stroke-linecap="round" stroke-linejoin="round"/>
<path d="M37.9581 32.5625C39.5938 36.5142 40.8265 40.5981 41.2013 44.7127C41.2235 44.9552 41.2858 45.204 41.4329 45.3984C41.5378 45.5369 41.6868 45.6347 41.8371 45.7218C44.6232 47.3369 48.1245 46.0105 51.0526 44.6699C53.947 43.3445 56.6581 42.1492 59.3696 40.4148C62.0881 38.676 64.7015 36.7728 67.1903 34.7187C67.5239 34.4434 67.8776 34.1273 67.9445 33.7C67.982 33.4602 67.9221 33.217 67.8591 32.9826C66.7606 28.8989 64.5431 25.1222 61.5122 22.1732C61.2817 21.9489 61.0293 21.7201 60.7142 21.6558C60.4469 21.6012 60.1717 21.6734 59.9089 21.7466C55.3727 23.0096 50.5288 24.6356 46.4747 27.0787C43.628 28.7941 40.7887 30.745 37.9581 32.5625Z" stroke="#F7931E" stroke-width="2.5" stroke-linecap="round" stroke-linejoin="round"/>
<path d="M42.3676 53.9893C45.4271 55.2807 47.7148 58.0063 49.0839 61.0318C50.4531 64.0573 50.997 67.386 51.3688 70.686C51.5485 72.2809 51.635 74.0725 50.5973 75.297C50.4075 75.5209 50.1769 75.7219 49.8983 75.8142M49.8983 75.8142C49.5268 75.9371 49.122 75.8533 48.7414 75.7629C46.4755 75.2238 44.2603 74.4716 42.1346 73.5194C42.281 69.2666 42.4275 65.0137 42.5739 60.7609C42.6526 58.4755 42.7284 56.1585 42.2068 53.9318C50.1007 48.0502 57.3748 44.1209 64.7256 39.9507C65.143 39.7139 65.6771 39.823 65.9518 40.2165C69.3966 45.1524 72.1659 51.7937 71.281 57.6447C71.1501 58.5103 70.9521 59.3736 70.5787 60.1654C69.8615 61.6859 68.5567 62.8337 67.2873 63.9358C63.4187 67.2943 59.5378 70.6624 55.284 73.5175C53.6443 74.6181 51.8721 75.8732 49.8983 75.8142Z" stroke="#F7931E" stroke-width="2.5" stroke-linecap="round" stroke-linejoin="round"/>
</svg>
