<svg width="227" height="74" viewBox="0 0 227 74" fill="none" xmlns="http://www.w3.org/2000/svg">
<path d="M22.4873 17.4417C20.3971 18.8985 19.7806 21.3327 19.4587 23.7233C18.9437 27.5474 18.9265 31.4248 19.1821 35.27C19.3089 37.1775 19.5041 39.0801 19.744 40.9765C19.9547 42.6419 20.0581 44.6631 21.2886 45.958" stroke="#68CFAE" stroke-width="2.5" stroke-linecap="round" stroke-linejoin="round"/>
<path d="M42.0558 41.442C42.0531 36.9395 39.721 32.501 36.0147 29.9444C35.9233 29.8814 35.8081 29.817 35.7075 29.8642C35.6069 29.9114 35.6479 30.1166 35.7512 30.0757" stroke="#89D089" stroke-width="2.5" stroke-linecap="round" stroke-linejoin="round"/>
<path d="M31.7667 67.0801C32.711 68.0486 34.9111 69.4873 36.1058 68.8367C37.0062 68.3463 40.0497 66.3262 40.9743 65.8831" stroke="#F7931E" stroke-width="2.5" stroke-linecap="round" stroke-linejoin="round"/>
<path d="M24.0209 18.7619C20.1302 29.2739 20.4904 38.5421 21.7453 49.6806" stroke="#F7931E" stroke-width="2.5" stroke-linecap="round" stroke-linejoin="round"/>
<path d="M48.3414 7.87219C45.1846 6.27248 41.1028 4.83197 37.5687 5.0159C34.0346 5.19982 30.445 6.93742 28.7181 10.0264" stroke="#68CFAE" stroke-width="2.5" stroke-linecap="round" stroke-linejoin="round"/>
<path d="M39.4417 10.301C38.5783 9.50302 37.3725 9.21917 36.2247 8.96469C35.831 8.87742 35.4367 8.79 35.0373 8.73306C33.0307 8.44688 30.9202 8.96986 29.2794 10.1599" stroke="#68CFAE" stroke-width="2.5" stroke-linecap="round" stroke-linejoin="round"/>
<path d="M34.3946 12.6308C33.001 11.2256 31.0444 10.4684 29.0756 10.2671C27.1068 10.0658 25.1171 10.3834 23.2034 10.888C20.6724 11.5555 18.1724 12.5874 16.2496 14.3635C14.1167 16.3336 12.8409 19.0979 12.2278 21.936C11.6148 24.774 11.6177 27.7067 11.7157 30.6086C11.87 35.1817 12.2536 39.7472 12.8646 44.282C13.0737 45.834 13.3142 47.3998 13.907 48.8492C15.13 51.8396 17.7718 54.0757 20.6936 55.4541" stroke="#68CFAE" stroke-width="2.5" stroke-linecap="round" stroke-linejoin="round"/>
<path d="M24.0208 18.7619C22.6573 16.5618 18.7863 15.4829 16.4653 16.51C14.7232 17.281 13.5487 19.1019 12.5663 20.6537" stroke="#68CFAE" stroke-width="2.5" stroke-linecap="round" stroke-linejoin="round"/>
<path d="M32.854 22.4412C38.4403 19.7956 44.299 16.9503 50.6532 13.3362" stroke="#68CFAE" stroke-width="2.5" stroke-linecap="round" stroke-linejoin="round"/>
<path d="M50.7672 13.3046C51.4983 13.3277 52.129 14.0511 52.0522 14.7785" stroke="#68CFAE" stroke-width="2.5" stroke-linecap="round" stroke-linejoin="round"/>
<path d="M42.8951 33.3906C46.6465 31.4715 50.9658 29.1635 56.5676 25.8358" stroke="#68CFAE" stroke-width="2.5" stroke-linecap="round" stroke-linejoin="round"/>
<path d="M56.635 25.635C57.0533 26.0301 57.3203 26.5815 57.3712 27.1546" stroke="#68CFAE" stroke-width="2.5" stroke-linecap="round" stroke-linejoin="round"/>
<path d="M46.4414 51.0156C50.6382 48.4601 55.1101 45.5453 59.6879 41.5536" stroke="#68CFAE" stroke-width="2.5" stroke-linecap="round" stroke-linejoin="round"/>
<path d="M59.5432 41.5062C59.8302 41.2563 60.2625 41.5683 60.4703 41.887C60.688 42.2207 60.8571 42.586 60.9708 42.9679" stroke="#68CFAE" stroke-width="2.5" stroke-linecap="round" stroke-linejoin="round"/>
<path d="M29.6371 67.5454C31.3837 67.7668 33.3998 66.0242 33.3998 66.0242C33.6732 59.9178 33.5976 53.5225 33.5646 47.41" stroke="#89D089" stroke-width="2.5" stroke-linecap="round" stroke-linejoin="round"/>
<path d="M29.6371 67.5454C25.3743 65.6082 21.9118 62.3718 21.9118 62.3718C20.4126 56.4343 20.9765 49.9966 23.4852 44.4102C23.6084 44.1358 24.147 43.605 24.4077 43.4551C24.7297 43.27 25.133 43.3502 25.4923 43.4443C28.3486 44.1926 31.2024 45.6387 33.5647 47.4101C33.5647 47.4101 30.6908 51.2833 29.8666 57.67C29.0423 64.0567 29.6371 67.5454 29.6371 67.5454Z" stroke="#89D089" stroke-width="2.5" stroke-linecap="round" stroke-linejoin="round"/>
<path d="M24.5818 47.238C26.2299 48.1823 27.7372 48.9229 29.1323 49.4743" stroke="#68CFAE" stroke-width="2.5" stroke-linecap="round" stroke-linejoin="round"/>
<path d="M29.624 49.6066C29.3736 50.04 29.2003 50.5177 29.1144 51.0107" stroke="#68CFAE" stroke-width="2.5" stroke-linecap="round" stroke-linejoin="round"/>
<path d="M49.2449 56.4363C49.3639 56.2427 49.6228 56.1107 49.797 56.0089C52.7013 54.3129 55.4726 52.3619 58.0349 50.1825C58.6168 49.6876 59.1889 49.1814 59.7508 48.664C60.0317 48.4053 60.3101 48.1439 60.5859 47.8798C60.6798 47.7899 61.4317 47.173 61.4053 47.0792C61.9401 48.9869 62.4453 51.1517 61.4236 52.8493C60.9932 53.5644 60.3342 54.1077 59.6882 54.6362C56.8806 56.9329 54.0731 59.2297 51.2656 61.5265C50.9113 61.8152 50.5602 62.1103 50.2026 62.3934C50.4306 62.1294 50.4563 58.2187 49.4401 57.1009C49.313 56.9601 49.1636 56.802 49.1828 56.6133C49.1894 56.5491 49.2117 56.4903 49.2449 56.4363Z" stroke="#68CFAE" stroke-width="2.5" stroke-linecap="round" stroke-linejoin="round"/>
<path d="M35.6301 68.8631C36.652 60.7825 36.5856 53.234 35.7324 45.1337C35.0629 38.7768 33.7648 32.3412 30.5179 26.8353C28.7225 23.7906 26.3791 21.1118 24.0502 18.4531C31.3692 13.9668 38.8291 9.65452 48.3414 7.87219C51.3871 9.52987 53.7507 12.2459 55.5104 15.2338C57.2701 18.2217 58.6801 21.682 59.8485 26.3947" stroke="#F7931E" stroke-width="2.5" stroke-linecap="round" stroke-linejoin="round"/>
<path d="M60.974 31.2718C60.974 31.2718 61.7224 35.2089 62.4535 41.4155" stroke="#F7931E" stroke-width="2.5" stroke-linecap="round" stroke-linejoin="round"/>
<path d="M33.6612 12.6859C33.6107 11.2317 31.914 10.2185 31.9102 8.76339C31.9088 8.23728 32.1381 7.73721 32.4148 7.28979C32.7383 6.76674 33.1436 6.27888 33.6716 5.96354C34.4481 5.49983 35.4543 5.46252 36.2778 5.83648C37.1013 6.21044 37.7284 6.97612 37.9665 7.84863C38.0816 8.26994 38.1132 8.71845 38.304 9.11132C38.4918 9.49816 38.8289 9.82048 38.9062 10.2435" stroke="#F7931E" stroke-width="2.5" stroke-linecap="round" stroke-linejoin="round"/>
<path d="M35.3693 29.7027C36.7839 33.1204 37.8501 36.6524 38.1741 40.211C38.1934 40.4207 38.2472 40.6359 38.3745 40.804C38.4652 40.9238 38.5941 41.0084 38.724 41.0837C41.1336 42.4806 44.1618 41.3335 46.6942 40.174C49.1975 39.0277 51.5422 37.9939 53.8873 36.4939C56.2384 34.99 58.4986 33.3441 60.6511 31.5676C60.9397 31.3295 61.2456 31.0561 61.3034 30.6865C61.3358 30.4791 61.2841 30.2687 61.2295 30.066C60.2795 26.5342 58.3617 23.2678 55.7404 20.7174C55.541 20.5234 55.3227 20.3255 55.0502 20.2699C54.819 20.2227 54.581 20.2851 54.3537 20.3484C50.4305 21.4407 46.2412 22.847 42.7349 24.9599C40.2729 26.4436 37.8173 28.1308 35.3693 29.7027Z" stroke="#89D089" stroke-width="2.5" stroke-linecap="round" stroke-linejoin="round"/>
<path d="M39.1828 48.234C41.8289 49.3508 43.8074 51.7081 44.9915 54.3248C46.1757 56.9415 46.6461 59.8203 46.9677 62.6744C47.1231 64.0538 47.1979 65.6033 46.3004 66.6623C46.1363 66.8559 45.9368 67.0298 45.6958 67.1095M45.6958 67.1095C45.3746 67.2159 45.0244 67.1434 44.6953 67.0652C42.7356 66.599 40.8197 65.9484 38.9813 65.1249C39.1079 61.4468 39.2346 57.7686 39.3612 54.0905C39.4293 52.114 39.4949 50.11 39.0437 48.1843C45.8709 43.0975 52.162 39.6991 58.5194 36.0925C58.8804 35.8877 59.3424 35.982 59.58 36.3224C62.5592 40.5913 64.9543 46.3351 64.189 51.3954C64.0758 52.144 63.9045 52.8907 63.5816 53.5755C62.9613 54.8905 61.8329 55.8832 60.735 56.8364C57.3892 59.741 54.0327 62.654 50.3538 65.1233C48.9356 66.0751 47.4029 67.1606 45.6958 67.1095Z" stroke="#89D089" stroke-width="2.5" stroke-linecap="round" stroke-linejoin="round"/>
<mask id="path-25-outside-1_38_264" maskUnits="userSpaceOnUse" x="76" y="23.5" width="151" height="35" fill="black">
<rect fill="white" x="76" y="23.5" width="151" height="35"/>
<path d="M90.464 35.252H104.128V48.5H98.496L97.824 42.836C97.184 44.8627 96.0427 46.3667 94.4 47.348C92.7573 48.3293 90.752 48.82 88.384 48.82C86.2293 48.82 84.3093 48.34 82.624 47.38C80.96 46.42 79.648 45.044 78.688 43.252C77.7493 41.46 77.28 39.3693 77.28 36.98C77.28 33.1613 78.4213 30.1427 80.704 27.924C82.9867 25.7053 86.5387 24.596 91.36 24.596C94.112 24.596 96.5333 25.044 98.624 25.94C100.736 26.836 102.528 28.2227 104 30.1C103.04 30.5907 101.163 31.572 98.368 33.044L97.568 33.492C96.736 32.66 95.7653 32.0413 94.656 31.636C93.5467 31.2093 92.3733 30.996 91.136 30.996C89.088 30.996 87.5627 31.54 86.56 32.628C85.5573 33.6947 85.056 35.0173 85.056 36.596C85.056 38.3027 85.5893 39.6787 86.656 40.724C87.744 41.7693 89.3973 42.292 91.616 42.292C92.576 42.292 93.504 42.1533 94.4 41.876C95.3173 41.5987 96.0853 41.1187 96.704 40.436H90.464V35.252ZM116.99 48.82C113.342 48.82 110.654 47.988 108.926 46.324C107.22 44.6387 106.366 42.4307 106.366 39.7C106.366 37.0333 107.22 34.868 108.926 33.204C110.654 31.54 113.342 30.708 116.99 30.708C119.444 30.708 121.492 31.1133 123.134 31.924C124.798 32.7133 126.025 33.7907 126.814 35.156C127.604 36.5 127.998 38.0147 127.998 39.7C127.998 42.452 127.081 44.66 125.246 46.324C123.433 47.988 120.681 48.82 116.99 48.82ZM117.118 43.38C118.505 43.38 119.54 43.0493 120.222 42.388C120.905 41.7267 121.246 40.8413 121.246 39.732C121.246 38.6867 120.905 37.8333 120.222 37.172C119.54 36.4893 118.505 36.148 117.118 36.148C115.732 36.148 114.718 36.4787 114.078 37.14C113.438 37.8013 113.118 38.6653 113.118 39.732C113.118 40.8413 113.438 41.7267 114.078 42.388C114.718 43.0493 115.732 43.38 117.118 43.38ZM137.801 42.644C145.907 42.6013 151.785 42.484 155.433 42.292C155.283 43.1667 155.187 44.0733 155.145 45.012C155.123 45.9293 155.113 47.092 155.113 48.5H130.249C130.419 44.3613 130.505 40.4893 130.505 36.884C130.505 33.2787 130.419 29.4067 130.249 25.268H155.113V31.06H137.801V34.132C138.825 34.1533 140.339 34.164 142.345 34.164C145.737 34.164 149.246 34.1 152.873 33.972V39.476C149.246 39.348 145.737 39.284 142.345 39.284C140.339 39.284 138.825 39.2947 137.801 39.316V42.644ZM178.511 43.188C178.511 43.9133 178.596 44.4253 178.767 44.724C178.937 45.0227 179.279 45.236 179.791 45.364L179.663 48.372C178.98 48.4787 178.383 48.5533 177.871 48.596C177.38 48.6387 176.719 48.66 175.887 48.66C174.052 48.66 172.836 48.2547 172.239 47.444C171.641 46.612 171.343 45.556 171.343 44.276V43.476C170.724 45.2253 169.817 46.5267 168.623 47.38C167.449 48.2333 165.945 48.66 164.111 48.66C161.977 48.66 160.367 48.2333 159.279 47.38C158.212 46.5267 157.679 45.2573 157.679 43.572C157.679 42.1853 158.137 41.0973 159.055 40.308C159.972 39.5187 161.391 38.9747 163.311 38.676C161.689 37.524 160.068 36.5213 158.447 35.668C159.727 34.0467 161.188 32.82 162.831 31.988C164.473 31.1347 166.468 30.708 168.815 30.708C172.1 30.708 174.532 31.4227 176.111 32.852C177.711 34.26 178.511 36.436 178.511 39.38V43.188ZM169.487 36.34C168.399 36.34 167.439 36.5213 166.607 36.884C165.775 37.2467 165.028 37.7907 164.367 38.516C165.647 38.3667 167.247 38.292 169.167 38.292C169.956 38.292 170.511 38.196 170.831 38.004C171.151 37.812 171.311 37.5667 171.311 37.268C171.311 37.012 171.151 36.7987 170.831 36.628C170.511 36.436 170.063 36.34 169.487 36.34ZM166.127 43.444C167.321 43.444 168.399 43.22 169.359 42.772C170.319 42.3027 170.98 41.6947 171.343 40.948V40.116C170.831 40.372 170.265 40.5747 169.647 40.724C169.028 40.852 168.281 40.98 167.407 41.108L166.255 41.3C165.06 41.5347 164.463 41.94 164.463 42.516C164.463 43.1347 165.017 43.444 166.127 43.444ZM192.054 48.82C190.262 48.82 188.438 48.5747 186.582 48.084C184.747 47.572 183.019 46.804 181.398 45.78L184.758 41.204C185.739 41.908 186.923 42.4627 188.31 42.868C189.696 43.252 190.891 43.444 191.894 43.444C192.854 43.444 193.59 43.316 194.102 43.06C194.635 42.7827 194.902 42.4307 194.902 42.004C194.902 41.6627 194.774 41.396 194.518 41.204C194.262 41.012 193.91 40.916 193.462 40.916C193.184 40.916 192.864 40.9267 192.502 40.948C192.16 40.9693 191.883 40.9907 191.67 41.012C190.56 41.14 189.419 41.204 188.246 41.204C186.347 41.204 184.8 40.852 183.606 40.148C182.432 39.4227 181.846 38.2493 181.846 36.628C181.846 34.7507 182.731 33.3 184.502 32.276C186.272 31.2307 188.875 30.708 192.31 30.708C193.995 30.708 195.691 30.9533 197.398 31.444C199.126 31.9133 200.651 32.628 201.974 33.588L198.294 37.3C197.078 36.66 195.936 36.212 194.87 35.956C193.824 35.6787 192.768 35.54 191.702 35.54C190.955 35.54 190.315 35.6893 189.782 35.988C189.248 36.2867 188.982 36.628 188.982 37.012C188.982 37.3107 189.088 37.5453 189.302 37.716C189.536 37.8867 189.835 37.972 190.198 37.972C190.56 37.972 191.062 37.94 191.702 37.876C193.259 37.7693 194.422 37.716 195.19 37.716C197.408 37.716 199.126 38.0893 200.342 38.836C201.558 39.5827 202.166 40.724 202.166 42.26C202.166 44.564 201.27 46.2387 199.478 47.284C197.686 48.308 195.211 48.82 192.054 48.82ZM225.461 31.028L224.725 32.884C222.698 38.2813 220.576 43.4867 218.357 48.5C217.205 51.06 215.541 53.108 213.365 54.644C211.189 56.2013 208.458 56.948 205.173 56.884C204.768 55.1133 204.426 53.7267 204.149 52.724C203.893 51.7427 203.552 50.7507 203.125 49.748C204.298 50.0253 205.397 50.164 206.421 50.164C208.085 50.164 209.408 49.812 210.389 49.108C209.621 46.8253 208.714 44.372 207.669 41.748C206.624 39.124 205.109 35.5507 203.125 31.028H210.709C210.965 32.0947 211.317 33.332 211.765 34.74C212.213 36.148 212.661 37.5027 213.109 38.804C213.237 39.2093 213.44 39.828 213.717 40.66C214.016 41.4707 214.25 42.1533 214.421 42.708L215.253 40.18C216.853 35.5507 217.802 32.5 218.101 31.028H225.461Z"/>
</mask>
<path d="M90.464 35.252H104.128V48.5H98.496L97.824 42.836C97.184 44.8627 96.0427 46.3667 94.4 47.348C92.7573 48.3293 90.752 48.82 88.384 48.82C86.2293 48.82 84.3093 48.34 82.624 47.38C80.96 46.42 79.648 45.044 78.688 43.252C77.7493 41.46 77.28 39.3693 77.28 36.98C77.28 33.1613 78.4213 30.1427 80.704 27.924C82.9867 25.7053 86.5387 24.596 91.36 24.596C94.112 24.596 96.5333 25.044 98.624 25.94C100.736 26.836 102.528 28.2227 104 30.1C103.04 30.5907 101.163 31.572 98.368 33.044L97.568 33.492C96.736 32.66 95.7653 32.0413 94.656 31.636C93.5467 31.2093 92.3733 30.996 91.136 30.996C89.088 30.996 87.5627 31.54 86.56 32.628C85.5573 33.6947 85.056 35.0173 85.056 36.596C85.056 38.3027 85.5893 39.6787 86.656 40.724C87.744 41.7693 89.3973 42.292 91.616 42.292C92.576 42.292 93.504 42.1533 94.4 41.876C95.3173 41.5987 96.0853 41.1187 96.704 40.436H90.464V35.252ZM116.99 48.82C113.342 48.82 110.654 47.988 108.926 46.324C107.22 44.6387 106.366 42.4307 106.366 39.7C106.366 37.0333 107.22 34.868 108.926 33.204C110.654 31.54 113.342 30.708 116.99 30.708C119.444 30.708 121.492 31.1133 123.134 31.924C124.798 32.7133 126.025 33.7907 126.814 35.156C127.604 36.5 127.998 38.0147 127.998 39.7C127.998 42.452 127.081 44.66 125.246 46.324C123.433 47.988 120.681 48.82 116.99 48.82ZM117.118 43.38C118.505 43.38 119.54 43.0493 120.222 42.388C120.905 41.7267 121.246 40.8413 121.246 39.732C121.246 38.6867 120.905 37.8333 120.222 37.172C119.54 36.4893 118.505 36.148 117.118 36.148C115.732 36.148 114.718 36.4787 114.078 37.14C113.438 37.8013 113.118 38.6653 113.118 39.732C113.118 40.8413 113.438 41.7267 114.078 42.388C114.718 43.0493 115.732 43.38 117.118 43.38ZM137.801 42.644C145.907 42.6013 151.785 42.484 155.433 42.292C155.283 43.1667 155.187 44.0733 155.145 45.012C155.123 45.9293 155.113 47.092 155.113 48.5H130.249C130.419 44.3613 130.505 40.4893 130.505 36.884C130.505 33.2787 130.419 29.4067 130.249 25.268H155.113V31.06H137.801V34.132C138.825 34.1533 140.339 34.164 142.345 34.164C145.737 34.164 149.246 34.1 152.873 33.972V39.476C149.246 39.348 145.737 39.284 142.345 39.284C140.339 39.284 138.825 39.2947 137.801 39.316V42.644ZM178.511 43.188C178.511 43.9133 178.596 44.4253 178.767 44.724C178.937 45.0227 179.279 45.236 179.791 45.364L179.663 48.372C178.98 48.4787 178.383 48.5533 177.871 48.596C177.38 48.6387 176.719 48.66 175.887 48.66C174.052 48.66 172.836 48.2547 172.239 47.444C171.641 46.612 171.343 45.556 171.343 44.276V43.476C170.724 45.2253 169.817 46.5267 168.623 47.38C167.449 48.2333 165.945 48.66 164.111 48.66C161.977 48.66 160.367 48.2333 159.279 47.38C158.212 46.5267 157.679 45.2573 157.679 43.572C157.679 42.1853 158.137 41.0973 159.055 40.308C159.972 39.5187 161.391 38.9747 163.311 38.676C161.689 37.524 160.068 36.5213 158.447 35.668C159.727 34.0467 161.188 32.82 162.831 31.988C164.473 31.1347 166.468 30.708 168.815 30.708C172.1 30.708 174.532 31.4227 176.111 32.852C177.711 34.26 178.511 36.436 178.511 39.38V43.188ZM169.487 36.34C168.399 36.34 167.439 36.5213 166.607 36.884C165.775 37.2467 165.028 37.7907 164.367 38.516C165.647 38.3667 167.247 38.292 169.167 38.292C169.956 38.292 170.511 38.196 170.831 38.004C171.151 37.812 171.311 37.5667 171.311 37.268C171.311 37.012 171.151 36.7987 170.831 36.628C170.511 36.436 170.063 36.34 169.487 36.34ZM166.127 43.444C167.321 43.444 168.399 43.22 169.359 42.772C170.319 42.3027 170.98 41.6947 171.343 40.948V40.116C170.831 40.372 170.265 40.5747 169.647 40.724C169.028 40.852 168.281 40.98 167.407 41.108L166.255 41.3C165.06 41.5347 164.463 41.94 164.463 42.516C164.463 43.1347 165.017 43.444 166.127 43.444ZM192.054 48.82C190.262 48.82 188.438 48.5747 186.582 48.084C184.747 47.572 183.019 46.804 181.398 45.78L184.758 41.204C185.739 41.908 186.923 42.4627 188.31 42.868C189.696 43.252 190.891 43.444 191.894 43.444C192.854 43.444 193.59 43.316 194.102 43.06C194.635 42.7827 194.902 42.4307 194.902 42.004C194.902 41.6627 194.774 41.396 194.518 41.204C194.262 41.012 193.91 40.916 193.462 40.916C193.184 40.916 192.864 40.9267 192.502 40.948C192.16 40.9693 191.883 40.9907 191.67 41.012C190.56 41.14 189.419 41.204 188.246 41.204C186.347 41.204 184.8 40.852 183.606 40.148C182.432 39.4227 181.846 38.2493 181.846 36.628C181.846 34.7507 182.731 33.3 184.502 32.276C186.272 31.2307 188.875 30.708 192.31 30.708C193.995 30.708 195.691 30.9533 197.398 31.444C199.126 31.9133 200.651 32.628 201.974 33.588L198.294 37.3C197.078 36.66 195.936 36.212 194.87 35.956C193.824 35.6787 192.768 35.54 191.702 35.54C190.955 35.54 190.315 35.6893 189.782 35.988C189.248 36.2867 188.982 36.628 188.982 37.012C188.982 37.3107 189.088 37.5453 189.302 37.716C189.536 37.8867 189.835 37.972 190.198 37.972C190.56 37.972 191.062 37.94 191.702 37.876C193.259 37.7693 194.422 37.716 195.19 37.716C197.408 37.716 199.126 38.0893 200.342 38.836C201.558 39.5827 202.166 40.724 202.166 42.26C202.166 44.564 201.27 46.2387 199.478 47.284C197.686 48.308 195.211 48.82 192.054 48.82ZM225.461 31.028L224.725 32.884C222.698 38.2813 220.576 43.4867 218.357 48.5C217.205 51.06 215.541 53.108 213.365 54.644C211.189 56.2013 208.458 56.948 205.173 56.884C204.768 55.1133 204.426 53.7267 204.149 52.724C203.893 51.7427 203.552 50.7507 203.125 49.748C204.298 50.0253 205.397 50.164 206.421 50.164C208.085 50.164 209.408 49.812 210.389 49.108C209.621 46.8253 208.714 44.372 207.669 41.748C206.624 39.124 205.109 35.5507 203.125 31.028H210.709C210.965 32.0947 211.317 33.332 211.765 34.74C212.213 36.148 212.661 37.5027 213.109 38.804C213.237 39.2093 213.44 39.828 213.717 40.66C214.016 41.4707 214.25 42.1533 214.421 42.708L215.253 40.18C216.853 35.5507 217.802 32.5 218.101 31.028H225.461Z" fill="#F7931E"/>
<path d="M90.464 35.252V34.252H89.464V35.252H90.464ZM104.128 35.252H105.128V34.252H104.128V35.252ZM104.128 48.5V49.5H105.128V48.5H104.128ZM98.496 48.5L97.503 48.6178L97.6076 49.5H98.496V48.5ZM97.824 42.836L98.817 42.7182L96.8704 42.5349L97.824 42.836ZM94.4 47.348L94.9129 48.2065V48.2065L94.4 47.348ZM82.624 47.38L82.1243 48.2462L82.129 48.2489L82.624 47.38ZM78.688 43.252L77.8021 43.716L77.8065 43.7242L78.688 43.252ZM80.704 27.924L81.401 28.6411H81.401L80.704 27.924ZM98.624 25.94L98.2301 26.8591L98.2334 26.8606L98.624 25.94ZM104 30.1L104.455 30.9904L105.536 30.4381L104.787 29.483L104 30.1ZM98.368 33.044L97.902 32.1592L97.8906 32.1652L97.8794 32.1715L98.368 33.044ZM97.568 33.492L96.8609 34.1991L97.3961 34.7344L98.0566 34.3645L97.568 33.492ZM94.656 31.636L94.297 32.5693L94.3049 32.5724L94.3128 32.5753L94.656 31.636ZM86.56 32.628L87.2887 33.3129L87.2954 33.3057L86.56 32.628ZM86.656 40.724L85.956 41.4382L85.9632 41.4451L86.656 40.724ZM94.4 41.876L94.1106 40.9188L94.1043 40.9207L94.4 41.876ZM96.704 40.436L97.445 41.1075L98.9598 39.436H96.704V40.436ZM90.464 40.436H89.464V41.436H90.464V40.436ZM90.464 35.252V36.252H104.128V35.252V34.252H90.464V35.252ZM104.128 35.252H103.128V48.5H104.128H105.128V35.252H104.128ZM104.128 48.5V47.5H98.496V48.5V49.5H104.128V48.5ZM98.496 48.5L99.489 48.3822L98.817 42.7182L97.824 42.836L96.831 42.9538L97.503 48.6178L98.496 48.5ZM97.824 42.836L96.8704 42.5349C96.2954 44.3559 95.2959 45.648 93.8871 46.4895L94.4 47.348L94.9129 48.2065C96.7895 47.0854 98.0726 45.3694 98.7776 43.1371L97.824 42.836ZM94.4 47.348L93.8871 46.4895C92.4324 47.3586 90.6141 47.82 88.384 47.82V48.82V49.82C90.8899 49.82 93.0822 49.3001 94.9129 48.2065L94.4 47.348ZM88.384 48.82V47.82C86.3832 47.82 84.6372 47.3759 83.119 46.5111L82.624 47.38L82.129 48.2489C83.9814 49.3041 86.0755 49.82 88.384 49.82V48.82ZM82.624 47.38L83.1237 46.5138C81.6308 45.6525 80.4468 44.4174 79.5695 42.7798L78.688 43.252L77.8065 43.7242C78.8492 45.6706 80.2892 47.1875 82.1243 48.2462L82.624 47.38ZM78.688 43.252L79.5738 42.788C78.7226 41.163 78.28 39.2369 78.28 36.98H77.28H76.28C76.28 39.5017 76.776 41.757 77.8022 43.716L78.688 43.252ZM77.28 36.98H78.28C78.28 33.3735 79.35 30.6346 81.401 28.6411L80.704 27.924L80.007 27.2069C77.4927 29.6508 76.28 32.9492 76.28 36.98H77.28ZM80.704 27.924L81.401 28.6411C83.4203 26.6784 86.6677 25.596 91.36 25.596V24.596V23.596C86.4097 23.596 82.553 24.7323 80.007 27.2069L80.704 27.924ZM91.36 24.596V25.596C94.0044 25.596 96.2871 26.0264 98.2301 26.8591L98.624 25.94L99.0179 25.0209C96.7795 24.0616 94.2196 23.596 91.36 23.596V24.596ZM98.624 25.94L98.2334 26.8606C100.183 27.6879 101.841 28.9673 103.213 30.717L104 30.1L104.787 29.483C103.215 27.4781 101.289 25.9841 99.0146 25.0194L98.624 25.94ZM104 30.1L103.545 29.2096C102.579 29.7035 100.696 30.6877 97.902 32.1592L98.368 33.044L98.834 33.9288C101.63 32.4563 103.501 31.4779 104.455 30.9904L104 30.1ZM98.368 33.044L97.8794 32.1715L97.0794 32.6195L97.568 33.492L98.0566 34.3645L98.8566 33.9165L98.368 33.044ZM97.568 33.492L98.2751 32.7849C97.3398 31.8495 96.2448 31.1518 94.9992 30.6967L94.656 31.636L94.3128 32.5753C95.2859 32.9308 96.1323 33.4705 96.8609 34.1991L97.568 33.492ZM94.656 31.636L95.015 30.7027C93.7864 30.2301 92.491 29.996 91.136 29.996V30.996V31.996C92.2557 31.996 93.3069 32.1885 94.297 32.5693L94.656 31.636ZM91.136 30.996V29.996C88.9194 29.996 87.0806 30.5875 85.8246 31.9503L86.56 32.628L87.2954 33.3057C88.0448 32.4925 89.2566 31.996 91.136 31.996V30.996ZM86.56 32.628L85.8314 31.9431C84.64 33.2105 84.056 34.7846 84.056 36.596H85.056H86.056C86.056 35.25 86.4747 34.1788 87.2886 33.3129L86.56 32.628ZM85.056 36.596H84.056C84.056 38.5296 84.6695 40.1774 85.9561 41.4382L86.656 40.724L87.3559 40.0098C86.5091 39.1799 86.056 38.0758 86.056 36.596H85.056ZM86.656 40.724L85.9632 41.4451C87.3091 42.7383 89.2594 43.292 91.616 43.292V42.292V41.292C89.5353 41.292 88.1789 40.8004 87.3488 40.0029L86.656 40.724ZM91.616 42.292V43.292C92.6739 43.292 93.7017 43.139 94.6957 42.8313L94.4 41.876L94.1043 40.9207C93.3063 41.1677 92.4781 41.292 91.616 41.292V42.292ZM94.4 41.876L94.6894 42.8332C95.7731 42.5056 96.6995 41.9302 97.445 41.1075L96.704 40.436L95.963 39.7645C95.4712 40.3072 94.8616 40.6917 94.1106 40.9188L94.4 41.876ZM96.704 40.436V39.436H90.464V40.436V41.436H96.704V40.436ZM90.464 40.436H91.464V35.252H90.464H89.464V40.436H90.464ZM108.926 46.324L108.224 47.0356L108.233 47.0443L108.926 46.324ZM108.926 33.204L108.233 32.4837L108.228 32.488L108.926 33.204ZM123.134 31.924L122.692 32.8207L122.699 32.8242L122.706 32.8275L123.134 31.924ZM126.814 35.156L125.948 35.6565L125.952 35.6624L126.814 35.156ZM125.246 46.324L124.574 45.5833L124.57 45.5872L125.246 46.324ZM120.222 37.172L119.515 37.8791L119.521 37.8847L119.526 37.8902L120.222 37.172ZM114.078 37.14L113.36 36.4446V36.4446L114.078 37.14ZM114.078 42.388L114.797 41.6926V41.6926L114.078 42.388ZM116.99 48.82V47.82C113.469 47.82 111.084 47.014 109.62 45.6037L108.926 46.324L108.233 47.0443C110.224 48.962 113.215 49.82 116.99 49.82V48.82ZM108.926 46.324L109.629 45.6125C108.139 44.1416 107.366 42.2036 107.366 39.7H106.366H105.366C105.366 42.6577 106.3 45.1357 108.224 47.0355L108.926 46.324ZM106.366 39.7H107.366C107.366 37.2678 108.135 35.3726 109.624 33.92L108.926 33.204L108.228 32.488C106.305 34.3634 105.366 36.7989 105.366 39.7H106.366ZM108.926 33.204L109.62 33.9243C111.084 32.514 113.469 31.708 116.99 31.708V30.708V29.708C113.215 29.708 110.224 30.566 108.233 32.4837L108.926 33.204ZM116.99 30.708V31.708C119.34 31.708 121.225 32.097 122.692 32.8207L123.134 31.924L123.577 31.0273C121.758 30.1297 119.547 29.708 116.99 29.708V30.708ZM123.134 31.924L122.706 32.8275C124.218 33.5449 125.277 34.4947 125.949 35.6565L126.814 35.156L127.68 34.6555C126.773 33.0866 125.378 31.8818 123.563 31.0205L123.134 31.924ZM126.814 35.156L125.952 35.6624C126.644 36.8405 126.998 38.1778 126.998 39.7H127.998H128.998C128.998 37.8516 128.563 36.1595 127.677 34.6496L126.814 35.156ZM127.998 39.7H126.998C126.998 42.2047 126.176 44.1311 124.574 45.5833L125.246 46.324L125.918 47.0647C127.986 45.1889 128.998 42.6993 128.998 39.7H127.998ZM125.246 46.324L124.57 45.5872C123.015 47.0144 120.553 47.82 116.99 47.82V48.82V49.82C120.809 49.82 123.851 48.9616 125.922 47.0608L125.246 46.324ZM117.118 43.38V44.38C118.646 44.38 119.978 44.0167 120.918 43.1062L120.222 42.388L119.526 41.6698C119.101 42.082 118.364 42.38 117.118 42.38V43.38ZM120.222 42.388L120.918 43.1062C121.828 42.2249 122.246 41.063 122.246 39.732H121.246H120.246C120.246 40.6197 119.982 41.2284 119.526 41.6698L120.222 42.388ZM121.246 39.732H122.246C122.246 38.4458 121.816 37.3233 120.918 36.4538L120.222 37.172L119.526 37.8902C119.994 38.3434 120.246 38.9276 120.246 39.732H121.246ZM120.222 37.172L120.929 36.4649C119.99 35.5259 118.654 35.148 117.118 35.148V36.148V37.148C118.356 37.148 119.089 37.4527 119.515 37.8791L120.222 37.172ZM117.118 36.148V35.148C115.597 35.148 114.265 35.5087 113.36 36.4446L114.078 37.14L114.797 37.8354C115.171 37.4486 115.866 37.148 117.118 37.148V36.148ZM114.078 37.14L113.36 36.4446C112.51 37.3221 112.118 38.4502 112.118 39.732H113.118H114.118C114.118 38.8804 114.366 38.2806 114.797 37.8354L114.078 37.14ZM113.118 39.732H112.118C112.118 41.0442 112.503 42.1985 113.36 43.0834L114.078 42.388L114.797 41.6926C114.373 41.2549 114.118 40.6385 114.118 39.732H113.118ZM114.078 42.388L113.36 43.0834C114.265 44.0193 115.597 44.38 117.118 44.38V43.38V42.38C115.866 42.38 115.171 42.0794 114.797 41.6926L114.078 42.388ZM137.801 42.644H136.801V43.6493L137.806 43.644L137.801 42.644ZM155.433 42.292L156.418 42.4603L156.629 41.2277L155.38 41.2934L155.433 42.292ZM155.145 45.012L154.146 44.9666L154.145 44.9777L154.145 44.9888L155.145 45.012ZM155.113 48.5V49.5H156.113V48.5H155.113ZM130.249 48.5L129.25 48.4588L129.207 49.5H130.249V48.5ZM130.249 25.268V24.268H129.207L129.25 25.3092L130.249 25.268ZM155.113 25.268H156.113V24.268H155.113V25.268ZM155.113 31.06V32.06H156.113V31.06H155.113ZM137.801 31.06V30.06H136.801V31.06H137.801ZM137.801 34.132H136.801V35.1114L137.78 35.1318L137.801 34.132ZM152.873 33.972H153.873V32.9361L152.837 32.9726L152.873 33.972ZM152.873 39.476L152.837 40.4754L153.873 40.5119V39.476H152.873ZM137.801 39.316L137.78 38.3162L136.801 38.3366V39.316H137.801ZM137.801 42.644L137.806 43.644C145.914 43.6013 151.812 43.484 155.485 43.2906L155.433 42.292L155.38 41.2934C151.758 41.484 145.901 41.6014 137.795 41.644L137.801 42.644ZM155.433 42.292L154.447 42.1237C154.29 43.0413 154.19 43.9891 154.146 44.9666L155.145 45.012L156.144 45.0574C156.185 44.1575 156.276 43.292 156.418 42.4603L155.433 42.292ZM155.145 45.012L154.145 44.9888C154.123 45.9168 154.113 47.0879 154.113 48.5H155.113H156.113C156.113 47.0961 156.123 45.9419 156.144 45.0352L155.145 45.012ZM155.113 48.5V47.5H130.249V48.5V49.5H155.113V48.5ZM130.249 48.5L131.248 48.5412C131.419 44.3908 131.505 40.5049 131.505 36.884H130.505H129.505C129.505 40.4738 129.42 44.3319 129.25 48.4588L130.249 48.5ZM130.505 36.884H131.505C131.505 33.2631 131.419 29.3772 131.248 25.2268L130.249 25.268L129.25 25.3092C129.42 29.4361 129.505 33.2942 129.505 36.884H130.505ZM130.249 25.268V26.268H155.113V25.268V24.268H130.249V25.268ZM155.113 25.268H154.113V31.06H155.113H156.113V25.268H155.113ZM155.113 31.06V30.06H137.801V31.06V32.06H155.113V31.06ZM137.801 31.06H136.801V34.132H137.801H138.801V31.06H137.801ZM137.801 34.132L137.78 35.1318C138.815 35.1533 140.338 35.164 142.345 35.164V34.164V33.164C140.341 33.164 138.835 33.1533 137.822 33.1322L137.801 34.132ZM142.345 34.164V35.164C145.749 35.164 149.27 35.0998 152.908 34.9714L152.873 33.972L152.837 32.9726C149.222 33.1002 145.724 33.164 142.345 33.164V34.164ZM152.873 33.972H151.873V39.476H152.873H153.873V33.972H152.873ZM152.873 39.476L152.908 38.4766C149.27 38.3482 145.749 38.284 142.345 38.284V39.284V40.284C145.724 40.284 149.222 40.3478 152.837 40.4754L152.873 39.476ZM142.345 39.284V38.284C140.338 38.284 138.815 38.2947 137.78 38.3162L137.801 39.316L137.822 40.3158C138.835 40.2947 140.341 40.284 142.345 40.284V39.284ZM137.801 39.316H136.801V42.644H137.801H138.801V39.316H137.801ZM178.767 44.724L177.899 45.2201V45.2201L178.767 44.724ZM179.791 45.364L180.79 45.4065L180.825 44.5917L180.033 44.3939L179.791 45.364ZM179.663 48.372L179.817 49.36L180.627 49.2335L180.662 48.4145L179.663 48.372ZM177.871 48.596L177.788 47.5994L177.784 47.5998L177.871 48.596ZM172.239 47.444L171.426 48.0273L171.434 48.0372L172.239 47.444ZM171.343 43.476H172.343L170.4 43.1426L171.343 43.476ZM168.623 47.38L168.041 46.5662L168.035 46.5713L168.623 47.38ZM159.279 47.38L158.654 48.1609L158.662 48.1669L159.279 47.38ZM159.055 40.308L159.707 41.066V41.066L159.055 40.308ZM163.311 38.676L163.464 39.6641L165.896 39.2859L163.89 37.8608L163.311 38.676ZM158.447 35.668L157.662 35.0484L156.916 35.9926L157.981 36.5529L158.447 35.668ZM162.831 31.988L163.283 32.8801L163.292 32.8754L162.831 31.988ZM176.111 32.852L175.44 33.5934L175.45 33.6027L176.111 32.852ZM166.607 36.884L167.006 37.8007V37.8007L166.607 36.884ZM164.367 38.516L163.628 37.8422L161.825 39.8193L164.483 39.5093L164.367 38.516ZM170.831 38.004L170.316 37.1465V37.1465L170.831 38.004ZM170.831 36.628L170.316 37.4855L170.338 37.4985L170.36 37.5104L170.831 36.628ZM169.359 42.772L169.782 43.6782L169.79 43.6744L169.798 43.6704L169.359 42.772ZM171.343 40.948L172.242 41.3849L172.343 41.178V40.948H171.343ZM171.343 40.116H172.343V38.498L170.896 39.2216L171.343 40.116ZM169.647 40.724L169.849 41.7033L169.865 41.6999L169.881 41.6961L169.647 40.724ZM167.407 41.108L167.262 40.1185L167.252 40.12L167.242 40.1216L167.407 41.108ZM166.255 41.3L166.09 40.3136L166.076 40.316L166.062 40.3188L166.255 41.3ZM178.511 43.188H177.511C177.511 43.9341 177.588 44.6775 177.899 45.2201L178.767 44.724L179.635 44.2279C179.635 44.2282 179.632 44.2232 179.627 44.2115C179.622 44.1997 179.616 44.1825 179.608 44.1589C179.593 44.1108 179.576 44.043 179.561 43.9516C179.53 43.7665 179.511 43.5155 179.511 43.188H178.511ZM178.767 44.724L177.899 45.2201C178.262 45.8564 178.911 46.1748 179.548 46.3341L179.791 45.364L180.033 44.3939C179.646 44.2972 179.613 44.1889 179.635 44.2279L178.767 44.724ZM179.791 45.364L178.792 45.3215L178.664 48.3295L179.663 48.372L180.662 48.4145L180.79 45.4065L179.791 45.364ZM179.663 48.372L179.508 47.384C178.842 47.4881 178.269 47.5593 177.788 47.5995L177.871 48.596L177.954 49.5925C178.496 49.5473 179.118 49.4692 179.817 49.36L179.663 48.372ZM177.871 48.596L177.784 47.5998C177.335 47.6388 176.707 47.66 175.887 47.66V48.66V49.66C176.731 49.66 177.425 49.6385 177.957 49.5922L177.871 48.596ZM175.887 48.66V47.66C174.121 47.66 173.342 47.2559 173.044 46.8508L172.239 47.444L171.434 48.0372C172.33 49.2534 173.983 49.66 175.887 49.66V48.66ZM172.239 47.444L173.051 46.8608C172.603 46.2371 172.343 45.3995 172.343 44.276H171.343H170.343C170.343 45.7125 170.68 46.9869 171.426 48.0272L172.239 47.444ZM171.343 44.276H172.343V43.476H171.343H170.343V44.276H171.343ZM171.343 43.476L170.4 43.1426C169.832 44.7497 169.03 45.8603 168.042 46.5663L168.623 47.38L169.204 48.1937C170.605 47.1931 171.617 45.701 172.286 43.8094L171.343 43.476ZM168.623 47.38L168.035 46.5713C167.073 47.2708 165.79 47.66 164.111 47.66V48.66V49.66C166.1 49.66 167.826 49.1959 169.211 48.1887L168.623 47.38ZM164.111 48.66V47.66C162.086 47.66 160.735 47.2512 159.896 46.5931L159.279 47.38L158.662 48.1669C159.999 49.2155 161.868 49.66 164.111 49.66V48.66ZM159.279 47.38L159.903 46.5991C159.129 45.9796 158.679 45.0318 158.679 43.572H157.679H156.679C156.679 45.4829 157.295 47.0738 158.654 48.1609L159.279 47.38ZM157.679 43.572H158.679C158.679 42.4293 159.044 41.6366 159.707 41.066L159.055 40.308L158.403 39.55C157.231 40.5581 156.679 41.9413 156.679 43.572H157.679ZM159.055 40.308L159.707 41.066C160.421 40.4513 161.628 39.9499 163.464 39.6641L163.311 38.676L163.157 37.6879C161.154 37.9995 159.523 38.586 158.403 39.55L159.055 40.308ZM163.311 38.676L163.89 37.8608C162.235 36.6852 160.576 35.6588 158.912 34.7831L158.447 35.668L157.981 36.5529C159.56 37.3839 161.143 38.3628 162.732 39.4912L163.311 38.676ZM158.447 35.668L159.232 36.2876C160.433 34.7663 161.784 33.6389 163.283 32.8801L162.831 31.988L162.379 31.0959C160.592 32.0011 159.021 33.3271 157.662 35.0484L158.447 35.668ZM162.831 31.988L163.292 32.8754C164.759 32.1132 166.587 31.708 168.815 31.708V30.708V29.708C166.35 29.708 164.188 30.1561 162.37 31.1006L162.831 31.988ZM168.815 30.708V31.708C171.982 31.708 174.122 32.4007 175.44 33.5933L176.111 32.852L176.782 32.1107C174.942 30.4446 172.219 29.708 168.815 29.708V30.708ZM176.111 32.852L175.45 33.6027C176.761 34.7567 177.511 36.6093 177.511 39.38H178.511H179.511C179.511 36.2627 178.66 33.7633 176.771 32.1013L176.111 32.852ZM178.511 39.38H177.511V43.188H178.511H179.511V39.38H178.511ZM169.487 36.34V35.34C168.288 35.34 167.188 35.5399 166.207 35.9673L166.607 36.884L167.006 37.8007C167.69 37.5028 168.509 37.34 169.487 37.34V36.34ZM166.607 36.884L166.207 35.9673C165.236 36.3906 164.376 37.0215 163.628 37.8422L164.367 38.516L165.106 39.1898C165.68 38.5598 166.314 38.1027 167.006 37.8007L166.607 36.884ZM164.367 38.516L164.483 39.5093C165.71 39.366 167.269 39.292 169.167 39.292V38.292V37.292C167.225 37.292 165.583 37.3673 164.251 37.5227L164.367 38.516ZM169.167 38.292V39.292C169.976 39.292 170.774 39.2044 171.345 38.8615L170.831 38.004L170.316 37.1465C170.248 37.1876 169.936 37.292 169.167 37.292V38.292ZM170.831 38.004L171.345 38.8615C171.88 38.5409 172.311 38.0086 172.311 37.268H171.311H170.311C170.311 37.2523 170.313 37.2282 170.321 37.1998C170.33 37.1713 170.342 37.1473 170.353 37.1297C170.375 37.0957 170.381 37.1077 170.316 37.1465L170.831 38.004ZM171.311 37.268H172.311C172.311 36.4964 171.794 36.0083 171.301 35.7456L170.831 36.628L170.36 37.5104C170.435 37.5502 170.424 37.5606 170.391 37.516C170.372 37.4915 170.351 37.4548 170.334 37.4067C170.318 37.3581 170.311 37.3101 170.311 37.268H171.311ZM170.831 36.628L171.345 35.7705C170.807 35.4477 170.154 35.34 169.487 35.34V36.34V37.34C169.972 37.34 170.214 37.4243 170.316 37.4855L170.831 36.628ZM166.127 43.444V44.444C167.449 44.444 168.673 44.1954 169.782 43.6782L169.359 42.772L168.936 41.8658C168.124 42.2446 167.194 42.444 166.127 42.444V43.444ZM169.359 42.772L169.798 43.6704C170.9 43.1314 171.757 42.3839 172.242 41.3849L171.343 40.948L170.443 40.5111C170.203 41.0054 169.737 41.4739 168.92 41.8736L169.359 42.772ZM171.343 40.948H172.343V40.116H171.343H170.343V40.948H171.343ZM171.343 40.116L170.896 39.2216C170.458 39.4402 169.965 39.6184 169.412 39.7519L169.647 40.724L169.881 41.6961C170.566 41.5309 171.203 41.3038 171.79 41.0104L171.343 40.116ZM169.647 40.724L169.444 39.7447C168.85 39.8676 168.124 39.9924 167.262 40.1185L167.407 41.108L167.552 42.0975C168.439 41.9676 169.206 41.8364 169.849 41.7033L169.647 40.724ZM167.407 41.108L167.242 40.1216L166.09 40.3136L166.255 41.3L166.419 42.2864L167.571 42.0944L167.407 41.108ZM166.255 41.3L166.062 40.3188C165.411 40.4466 164.81 40.6396 164.349 40.9525C163.855 41.2881 163.463 41.8119 163.463 42.516H164.463H165.463C165.463 42.5549 165.45 42.6015 165.429 42.6359C165.413 42.6627 165.412 42.6484 165.472 42.6075C165.608 42.515 165.904 42.388 166.447 42.2812L166.255 41.3ZM164.463 42.516H163.463C163.463 42.8247 163.534 43.1426 163.708 43.435C163.882 43.7261 164.127 43.9376 164.392 44.0854C164.891 44.364 165.512 44.444 166.127 44.444V43.444V42.444C165.893 42.444 165.714 42.4275 165.582 42.4028C165.447 42.3778 165.384 42.3488 165.366 42.3386C165.353 42.3317 165.39 42.3499 165.425 42.409C165.461 42.4694 165.463 42.5166 165.463 42.516H164.463ZM186.581 48.084L186.313 49.0473L186.326 49.0508L186.581 48.084ZM181.397 45.78L180.591 45.1881L179.957 46.0527L180.864 46.6255L181.397 45.78ZM184.757 41.204L185.34 40.3915L184.537 39.815L183.951 40.6121L184.757 41.204ZM188.31 42.868L188.029 43.8278L188.036 43.8298L188.043 43.8317L188.31 42.868ZM194.102 43.06L194.549 43.9544L194.556 43.9509L194.563 43.9472L194.102 43.06ZM192.502 40.948L192.443 39.9497L192.439 39.9499L192.502 40.948ZM191.67 41.012L191.57 40.017L191.562 40.0177L191.555 40.0186L191.67 41.012ZM183.605 40.148L183.08 40.9986L183.089 41.0042L183.098 41.0095L183.605 40.148ZM184.502 32.276L185.002 33.1417L185.01 33.1371L184.502 32.276ZM197.397 31.444L197.121 32.4051L197.128 32.4071L197.135 32.409L197.397 31.444ZM201.974 33.588L202.684 34.292L203.505 33.4638L202.561 32.7787L201.974 33.588ZM198.294 37.3L197.828 38.1849L198.483 38.5296L199.004 38.004L198.294 37.3ZM194.869 35.956L194.613 36.9226L194.625 36.9256L194.636 36.9284L194.869 35.956ZM189.782 35.988L189.293 35.1155V35.1155L189.782 35.988ZM189.301 37.716L188.677 38.4969L188.695 38.5112L188.713 38.5247L189.301 37.716ZM191.701 37.876L191.633 36.8783L191.618 36.8794L191.602 36.881L191.701 37.876ZM200.341 38.836L200.865 37.9838V37.9838L200.341 38.836ZM199.478 47.284L199.974 48.1523L199.981 48.1478L199.478 47.284ZM192.053 48.82V47.82C190.354 47.82 188.616 47.5874 186.837 47.1172L186.581 48.084L186.326 49.0508C188.259 49.5619 190.169 49.82 192.053 49.82V48.82ZM186.581 48.084L186.85 47.1208C185.11 46.6351 183.471 45.9069 181.931 44.9345L181.397 45.78L180.864 46.6255C182.566 47.7011 184.384 48.5089 186.313 49.0472L186.581 48.084ZM181.397 45.78L182.204 46.3719L185.564 41.7959L184.757 41.204L183.951 40.6121L180.591 45.1881L181.397 45.78ZM184.757 41.204L184.175 42.0165C185.264 42.7978 186.555 43.3969 188.029 43.8278L188.31 42.868L188.59 41.9082C187.291 41.5285 186.214 41.0182 185.34 40.3915L184.757 41.204ZM188.31 42.868L188.043 43.8317C189.482 44.2303 190.771 44.444 191.894 44.444V43.444V42.444C191.011 42.444 189.91 42.2737 188.576 41.9043L188.31 42.868ZM191.894 43.444V44.444C192.917 44.444 193.834 44.3118 194.549 43.9544L194.102 43.06L193.654 42.1656C193.345 42.3202 192.79 42.444 191.894 42.444V43.444ZM194.102 43.06L194.563 43.9472C195.273 43.5778 195.902 42.9501 195.902 42.004H194.902H193.902C193.902 42.0045 193.902 41.9968 193.905 41.986C193.909 41.9756 193.912 41.9747 193.904 41.9841C193.887 42.0073 193.82 42.0791 193.64 42.1728L194.102 43.06ZM194.902 42.004H195.902C195.902 41.3723 195.644 40.799 195.118 40.404L194.518 41.204L193.918 42.004C193.924 42.0091 193.923 42.0095 193.919 42.0039C193.917 42.0013 193.914 41.9978 193.911 41.9936C193.908 41.9894 193.906 41.985 193.904 41.9807C193.9 41.9716 193.899 41.9665 193.899 41.968C193.899 41.97 193.902 41.9812 193.902 42.004H194.902ZM194.518 41.204L195.118 40.404C194.631 40.0393 194.041 39.916 193.462 39.916V40.916V41.916C193.778 41.916 193.892 41.9847 193.918 42.004L194.518 41.204ZM193.462 40.916V39.916C193.16 39.916 192.819 39.9276 192.443 39.9497L192.502 40.948L192.56 41.9463C192.909 41.9258 193.209 41.916 193.462 41.916V40.916ZM192.502 40.948L192.439 39.9499C192.092 39.9717 191.801 39.9939 191.57 40.017L191.67 41.012L191.769 42.007C191.965 41.9874 192.229 41.967 192.564 41.9461L192.502 40.948ZM191.67 41.012L191.555 40.0186C190.485 40.142 189.382 40.204 188.245 40.204V41.204V42.204C189.455 42.204 190.635 42.138 191.784 42.0054L191.67 41.012ZM188.245 41.204V40.204C186.462 40.204 185.107 39.8723 184.113 39.2865L183.605 40.148L183.098 41.0095C184.493 41.8317 186.232 42.204 188.245 42.204V41.204ZM183.605 40.148L184.131 39.2974C183.309 38.7889 182.845 37.9741 182.845 36.628H181.845H180.845C180.845 38.5246 181.556 40.0565 183.08 40.9986L183.605 40.148ZM181.845 36.628H182.845C182.845 35.1449 183.507 34.0064 185.002 33.1417L184.502 32.276L184.001 31.4103C181.955 32.5936 180.845 34.3564 180.845 36.628H181.845ZM184.502 32.276L185.01 33.1371C186.555 32.2248 188.947 31.708 192.31 31.708V30.708V29.708C188.802 29.708 185.989 30.2366 183.993 31.4149L184.502 32.276ZM192.31 30.708V31.708C193.896 31.708 195.5 31.9388 197.121 32.4051L197.397 31.444L197.674 30.4829C195.882 29.9678 194.093 29.708 192.31 29.708V30.708ZM197.397 31.444L197.135 32.409C198.758 32.8496 200.171 33.515 201.386 34.3973L201.974 33.588L202.561 32.7787C201.131 31.741 199.493 30.977 197.66 30.479L197.397 31.444ZM201.974 33.588L201.263 32.884L197.583 36.596L198.294 37.3L199.004 38.004L202.684 34.292L201.974 33.588ZM198.294 37.3L198.759 36.4151C197.487 35.7457 196.268 35.2632 195.103 34.9836L194.869 35.956L194.636 36.9284C195.605 37.1608 196.668 37.5743 197.828 38.1849L198.294 37.3ZM194.869 35.956L195.126 34.9894C193.998 34.6902 192.856 34.54 191.701 34.54V35.54V36.54C192.68 36.54 193.65 36.6671 194.613 36.9226L194.869 35.956ZM191.701 35.54V34.54C190.821 34.54 190.005 34.7166 189.293 35.1155L189.782 35.988L190.27 36.8605C190.624 36.6621 191.088 36.54 191.701 36.54V35.54ZM189.782 35.988L189.293 35.1155C188.643 35.4795 187.981 36.0843 187.981 37.012H188.981H189.981C189.981 37.0345 189.977 37.0579 189.97 37.0771C189.964 37.0949 189.959 37.0969 189.97 37.0836C189.995 37.0513 190.075 36.9697 190.27 36.8605L189.782 35.988ZM188.981 37.012H187.981C187.981 37.5821 188.202 38.1171 188.677 38.4969L189.301 37.716L189.926 36.9351C189.929 36.9372 189.937 36.944 189.946 36.9564C189.956 36.9689 189.965 36.9833 189.972 36.9982C189.986 37.0299 189.981 37.0411 189.981 37.012H188.981ZM189.301 37.716L188.713 38.5247C189.158 38.8478 189.677 38.972 190.198 38.972V37.972V36.972C189.993 36.972 189.915 36.9255 189.89 36.9073L189.301 37.716ZM190.198 37.972V38.972C190.609 38.972 191.149 38.9362 191.801 38.871L191.701 37.876L191.602 36.881C190.974 36.9438 190.511 36.972 190.198 36.972V37.972ZM191.701 37.876L191.77 38.8737C193.323 38.7673 194.457 38.716 195.189 38.716V37.716V36.716C194.386 36.716 193.195 36.7714 191.633 36.8783L191.701 37.876ZM195.189 37.716V38.716C197.317 38.716 198.824 39.0777 199.818 39.6882L200.341 38.836L200.865 37.9838C199.427 37.1009 197.499 36.716 195.189 36.716V37.716ZM200.341 38.836L199.818 39.6882C200.712 40.2368 201.165 41.0396 201.165 42.26H202.165H203.165C203.165 40.4084 202.403 38.9285 200.865 37.9838L200.341 38.836ZM202.165 42.26H201.165C201.165 44.2558 200.42 45.5768 198.974 46.4202L199.478 47.284L199.981 48.1478C202.119 46.9005 203.165 44.8722 203.165 42.26H202.165ZM199.478 47.284L198.981 46.4158C197.4 47.3194 195.121 47.82 192.053 47.82V48.82V49.82C195.3 49.82 197.971 49.2966 199.974 48.1522L199.478 47.284ZM225.461 31.028L226.391 31.3966L226.933 30.028H225.461V31.028ZM224.725 32.884L223.795 32.5154L223.792 32.5239L223.789 32.5325L224.725 32.884ZM218.357 48.5L219.269 48.9104L219.271 48.9047L218.357 48.5ZM213.365 54.644L212.788 53.827L212.783 53.8308L213.365 54.644ZM205.173 56.884L204.198 57.1071L204.373 57.8686L205.154 57.8838L205.173 56.884ZM204.149 52.724L203.181 52.9764L203.183 52.9835L203.185 52.9906L204.149 52.724ZM203.125 49.748L203.355 48.7748L201.431 48.3199L202.205 50.1396L203.125 49.748ZM210.389 49.108L210.972 49.9205L211.572 49.4897L211.337 48.7891L210.389 49.108ZM207.669 41.748L206.74 42.1181V42.1181L207.669 41.748ZM203.125 31.028V30.028H201.594L202.209 31.4297L203.125 31.028ZM210.709 31.028L211.681 30.7946L211.497 30.028H210.709V31.028ZM211.765 34.74L210.812 35.0432V35.0432L211.765 34.74ZM213.109 38.804L214.063 38.5029L214.059 38.4906L214.055 38.4785L213.109 38.804ZM213.717 40.66L212.768 40.9762L212.773 40.991L212.779 41.0057L213.717 40.66ZM214.421 42.708L213.465 43.0021L214.389 46.0042L215.371 43.0206L214.421 42.708ZM215.253 40.18L214.308 39.8533L214.305 39.8603L214.303 39.8674L215.253 40.18ZM218.101 31.028V30.028H217.284L217.121 30.8292L218.101 31.028ZM225.461 31.028L224.531 30.6594L223.795 32.5154L224.725 32.884L225.655 33.2526L226.391 31.3966L225.461 31.028ZM224.725 32.884L223.789 32.5325C221.769 37.9128 219.653 43.1004 217.443 48.0953L218.357 48.5L219.271 48.9047C221.498 43.873 223.628 38.6499 225.661 33.2355L224.725 32.884ZM218.357 48.5L217.445 48.0896C216.362 50.4957 214.81 52.3998 212.788 53.827L213.365 54.644L213.942 55.461C216.272 53.8162 218.048 51.6243 219.269 48.9104L218.357 48.5ZM213.365 54.644L212.783 53.8308C210.819 55.2365 208.313 55.945 205.192 55.8842L205.173 56.884L205.154 57.8838C208.604 57.951 211.559 57.1662 213.947 55.4572L213.365 54.644ZM205.173 56.884L206.148 56.6609C205.741 54.8846 205.396 53.4812 205.113 52.4574L204.149 52.724L203.185 52.9906C203.457 53.9721 203.794 55.342 204.198 57.1071L205.173 56.884ZM204.149 52.724L205.117 52.4716C204.847 51.4394 204.49 50.4009 204.045 49.3564L203.125 49.748L202.205 50.1396C202.614 51.1004 202.939 52.0459 203.181 52.9764L204.149 52.724ZM203.125 49.748L202.895 50.7212C204.131 51.0133 205.307 51.164 206.421 51.164V50.164V49.164C205.487 49.164 204.466 49.0374 203.355 48.7748L203.125 49.748ZM206.421 50.164V51.164C208.217 51.164 209.767 50.7848 210.972 49.9205L210.389 49.108L209.806 48.2955C209.048 48.8392 207.953 49.164 206.421 49.164V50.164ZM210.389 49.108L211.337 48.7891C210.562 46.4866 209.649 44.016 208.598 41.3779L207.669 41.748L206.74 42.1181C207.78 44.728 208.68 47.1641 209.441 49.4269L210.389 49.108ZM207.669 41.748L208.598 41.3779C207.546 38.7383 206.027 35.1529 204.041 30.6263L203.125 31.028L202.209 31.4297C204.191 35.9484 205.701 39.5097 206.74 42.1181L207.669 41.748ZM203.125 31.028V32.028H210.709V31.028V30.028H203.125V31.028ZM210.709 31.028L209.737 31.2614C210 32.358 210.359 33.6195 210.812 35.0432L211.765 34.74L212.718 34.4368C212.275 33.0445 211.93 31.8313 211.681 30.7946L210.709 31.028ZM211.765 34.74L210.812 35.0432C211.262 36.4581 211.713 37.8203 212.163 39.1295L213.109 38.804L214.055 38.4785C213.609 37.1851 213.164 35.8379 212.718 34.4368L211.765 34.74ZM213.109 38.804L212.155 39.1051C212.286 39.5184 212.491 40.1433 212.768 40.9762L213.717 40.66L214.666 40.3438C214.389 39.5127 214.188 38.9003 214.063 38.5029L213.109 38.804ZM213.717 40.66L212.779 41.0057C213.074 41.8067 213.302 42.4709 213.465 43.0021L214.421 42.708L215.377 42.4139C215.199 41.8357 214.958 41.1347 214.655 40.3143L213.717 40.66ZM214.421 42.708L215.371 43.0206L216.203 40.4926L215.253 40.18L214.303 39.8674L213.471 42.3954L214.421 42.708ZM215.253 40.18L216.198 40.5067C217.793 35.8918 218.767 32.7761 219.081 31.2268L218.101 31.028L217.121 30.8292C216.838 32.2239 215.913 35.2095 214.308 39.8533L215.253 40.18ZM218.101 31.028V32.028H225.461V31.028V30.028H218.101V31.028Z" fill="#89D089" fill-opacity="0.37" mask="url(#path-25-outside-1_38_264)"/>
</svg>
