<svg width="174" height="151" viewBox="0 0 174 151" fill="none" xmlns="http://www.w3.org/2000/svg">
<path d="M65.6701 31.1074C62.796 33.1104 61.9484 36.4574 61.5057 39.7446C60.7977 45.0027 60.774 50.3341 61.1254 55.6213C61.2998 58.2441 61.5681 60.8601 61.898 63.4677C62.1877 65.7576 62.3299 68.5367 64.0218 70.3173" stroke="#68CFAE" stroke-width="2.5" stroke-linecap="round" stroke-linejoin="round"/>
<path d="M92.5768 64.1078C92.573 57.9169 89.3664 51.8139 84.2703 48.2986C84.1446 48.2119 83.9861 48.1234 83.8478 48.1883C83.7095 48.2532 83.7659 48.5354 83.9079 48.4791" stroke="#89D089" stroke-width="2.5" stroke-linecap="round" stroke-linejoin="round"/>
<path d="M78.4292 99.3601C79.7276 100.692 82.7527 102.67 84.3954 101.775C85.6335 101.101 89.8183 98.3235 91.0896 97.7143" stroke="#F7931E" stroke-width="2.5" stroke-linecap="round" stroke-linejoin="round"/>
<path d="M67.7786 32.9226C62.4289 47.3767 62.9242 60.1204 64.6497 75.4358" stroke="#F7931E" stroke-width="2.5" stroke-linecap="round" stroke-linejoin="round"/>
<path d="M101.219 17.9493C96.8789 15.7497 91.2664 13.769 86.407 14.0219C81.5476 14.2748 76.6118 16.664 74.2374 20.9114" stroke="#68CFAE" stroke-width="2.5" stroke-linecap="round" stroke-linejoin="round"/>
<path d="M88.9824 21.2889C87.7952 20.1917 86.1373 19.8014 84.5591 19.4515C84.0177 19.3315 83.4755 19.2113 82.9264 19.133C80.1673 18.7395 77.2654 19.4586 75.0093 21.0949" stroke="#68CFAE" stroke-width="2.5" stroke-linecap="round" stroke-linejoin="round"/>
<path d="M82.0427 24.4924C80.1265 22.5602 77.4362 21.5191 74.729 21.2423C72.0219 20.9655 69.2861 21.4022 66.6548 22.0961C63.1746 23.0138 59.7371 24.4327 57.0932 26.8748C54.1605 29.5837 52.4063 33.3847 51.5633 37.287C50.7204 41.1893 50.7244 45.2217 50.8591 49.2118C51.0713 55.4999 51.5988 61.7774 52.4389 68.0128C52.7264 70.1467 53.0571 72.2997 53.8722 74.2927C55.5539 78.4044 59.1862 81.4791 63.2038 83.3744" stroke="#68CFAE" stroke-width="2.5" stroke-linecap="round" stroke-linejoin="round"/>
<path d="M67.7787 32.9226C65.9039 29.8975 60.5812 28.414 57.3899 29.8263C54.9945 30.8864 53.3795 33.3901 52.0287 35.5239" stroke="#68CFAE" stroke-width="2.5" stroke-linecap="round" stroke-linejoin="round"/>
<path d="M79.9243 37.9817C87.6055 34.344 95.6612 30.4317 104.398 25.4623" stroke="#68CFAE" stroke-width="2.5" stroke-linecap="round" stroke-linejoin="round"/>
<path d="M104.555 25.4189C105.56 25.4506 106.427 26.4453 106.322 27.4455" stroke="#68CFAE" stroke-width="2.5" stroke-linecap="round" stroke-linejoin="round"/>
<path d="M93.7308 53.0371C98.8889 50.3983 104.828 47.2248 112.53 42.6492" stroke="#68CFAE" stroke-width="2.5" stroke-linecap="round" stroke-linejoin="round"/>
<path d="M112.623 42.3731C113.198 42.9164 113.565 43.6745 113.635 44.4626" stroke="#68CFAE" stroke-width="2.5" stroke-linecap="round" stroke-linejoin="round"/>
<path d="M98.6069 77.2715C104.378 73.7576 110.526 69.7498 116.821 64.2612" stroke="#68CFAE" stroke-width="2.5" stroke-linecap="round" stroke-linejoin="round"/>
<path d="M116.622 64.196C117.017 63.8524 117.611 64.2815 117.897 64.7197C118.196 65.1785 118.429 65.6808 118.585 66.2059" stroke="#68CFAE" stroke-width="2.5" stroke-linecap="round" stroke-linejoin="round"/>
<path d="M75.501 99.9999C77.9026 100.304 80.6747 97.9083 80.6747 97.9083C81.0507 89.512 80.9467 80.7184 80.9014 72.3138" stroke="#89D089" stroke-width="2.5" stroke-linecap="round" stroke-linejoin="round"/>
<path d="M75.501 99.9999C69.6397 97.3363 64.8786 92.8862 64.8786 92.8862C62.8173 84.7221 63.5927 75.8703 67.0421 68.189C67.2115 67.8117 67.952 67.0819 68.3105 66.8758C68.7532 66.6212 69.3079 66.7315 69.8019 66.8609C73.7293 67.8899 77.6533 69.8782 80.9015 72.3139C80.9015 72.3139 76.9498 77.6396 75.8165 86.4212C74.6831 95.2029 75.501 99.9999 75.501 99.9999Z" stroke="#89D089" stroke-width="2.5" stroke-linecap="round" stroke-linejoin="round"/>
<path d="M68.5499 72.0773C70.8161 73.3757 72.8886 74.394 74.8069 75.1522" stroke="#68CFAE" stroke-width="2.5" stroke-linecap="round" stroke-linejoin="round"/>
<path d="M75.483 75.3341C75.1388 75.93 74.9004 76.5868 74.7823 77.2647" stroke="#68CFAE" stroke-width="2.5" stroke-linecap="round" stroke-linejoin="round"/>
<path d="M102.462 84.7249C102.625 84.4587 102.981 84.2772 103.221 84.1373C107.214 81.8052 111.025 79.1226 114.548 76.1259C115.348 75.4455 116.135 74.7494 116.907 74.038C117.294 73.6823 117.676 73.3229 118.056 72.9597C118.185 72.8361 119.219 71.9879 119.182 71.8589C119.918 74.482 120.612 77.4586 119.208 79.7928C118.616 80.7761 117.71 81.5231 116.821 82.2498C112.961 85.4078 109.101 88.5659 105.24 91.7239C104.753 92.1209 104.27 92.5266 103.779 92.9159C104.092 92.5529 104.128 87.1757 102.73 85.6387C102.555 85.4451 102.35 85.2278 102.376 84.9683C102.385 84.88 102.416 84.7991 102.462 84.7249Z" stroke="#68CFAE" stroke-width="2.5" stroke-linecap="round" stroke-linejoin="round"/>
<path d="M83.7413 101.812C85.1464 90.7009 85.0552 80.3217 83.8821 69.1838C82.9615 60.4431 81.1766 51.5942 76.7122 44.0235C74.2435 39.8371 71.0213 36.1538 67.819 32.498C77.8827 26.3294 88.14 20.4 101.219 17.9493C105.407 20.2286 108.657 23.9632 111.077 28.0715C113.496 32.1798 115.435 36.9378 117.042 43.4178" stroke="#F7931E" stroke-width="2.5" stroke-linecap="round" stroke-linejoin="round"/>
<path d="M118.589 50.1237C118.589 50.1237 119.618 55.5372 120.624 64.0713" stroke="#F7931E" stroke-width="2.5" stroke-linecap="round" stroke-linejoin="round"/>
<path d="M81.0342 24.5682C80.9647 22.5686 78.6318 21.1755 78.6265 19.1747C78.6246 18.4513 78.9398 17.7637 79.3203 17.1485C79.7651 16.4293 80.3225 15.7585 81.0485 15.3249C82.1162 14.6873 83.4997 14.636 84.632 15.1502C85.7643 15.6644 86.6265 16.7172 86.954 17.9169C87.1122 18.4962 87.1557 19.1129 87.418 19.6531C87.6763 20.185 88.1397 20.6282 88.246 21.2099" stroke="#F7931E" stroke-width="2.5" stroke-linecap="round" stroke-linejoin="round"/>
<path d="M83.3827 47.9662C85.3278 52.6656 86.7938 57.5221 87.2394 62.4151C87.2659 62.7035 87.3399 62.9994 87.5149 63.2305C87.6396 63.3952 87.8168 63.5115 87.9955 63.6151C91.3087 65.5358 95.4725 63.9585 98.9545 62.3642C102.396 60.7881 105.62 59.3666 108.845 57.3041C112.078 55.2363 115.186 52.9731 118.145 50.5304C118.542 50.203 118.963 49.8271 119.042 49.3189C119.087 49.0338 119.016 48.7445 118.941 48.4658C117.634 43.6095 114.997 39.1183 111.393 35.6114C111.119 35.3447 110.819 35.0726 110.444 34.9961C110.126 34.9312 109.799 35.017 109.486 35.1041C104.092 36.606 98.3316 38.5397 93.5105 41.4449C90.1252 43.4849 86.7488 45.8049 83.3827 47.9662Z" stroke="#89D089" stroke-width="2.5" stroke-linecap="round" stroke-linejoin="round"/>
<path d="M88.6262 73.4467C92.2646 74.9824 94.9851 78.2237 96.6133 81.8216C98.2415 85.4195 98.8882 89.3779 99.3304 93.3023C99.5441 95.1989 99.647 97.3295 98.413 98.7856C98.1873 99.0519 97.9131 99.2909 97.5817 99.4006M97.5817 99.4006C97.14 99.5468 96.6585 99.4472 96.2059 99.3396C93.5113 98.6986 90.877 97.804 88.3492 96.6717C88.5233 91.6143 88.6975 86.5568 88.8716 81.4994C88.9652 78.7817 89.0554 76.0263 88.4351 73.3784C97.8224 66.384 106.473 61.7113 115.214 56.7522C115.711 56.4706 116.346 56.6003 116.672 57.0683C120.769 62.938 124.062 70.8357 123.01 77.7937C122.854 78.823 122.619 79.8497 122.175 80.7913C121.322 82.5995 119.77 83.9644 118.26 85.275C113.66 89.2689 109.045 93.2742 103.986 96.6695C102.036 97.9783 99.929 99.4708 97.5817 99.4006Z" stroke="#89D089" stroke-width="2.5" stroke-linecap="round" stroke-linejoin="round"/>
<mask id="path-25-outside-1_38_321" maskUnits="userSpaceOnUse" x="12" y="116" width="151" height="35" fill="black">
<rect fill="white" x="12" y="116" width="151" height="35"/>
<path d="M26.464 127.752H40.128V141H34.496L33.824 135.336C33.184 137.363 32.0427 138.867 30.4 139.848C28.7573 140.829 26.752 141.32 24.384 141.32C22.2293 141.32 20.3093 140.84 18.624 139.88C16.96 138.92 15.648 137.544 14.688 135.752C13.7493 133.96 13.28 131.869 13.28 129.48C13.28 125.661 14.4213 122.643 16.704 120.424C18.9867 118.205 22.5387 117.096 27.36 117.096C30.112 117.096 32.5333 117.544 34.624 118.44C36.736 119.336 38.528 120.723 40 122.6C39.04 123.091 37.1627 124.072 34.368 125.544L33.568 125.992C32.736 125.16 31.7653 124.541 30.656 124.136C29.5467 123.709 28.3733 123.496 27.136 123.496C25.088 123.496 23.5627 124.04 22.56 125.128C21.5573 126.195 21.056 127.517 21.056 129.096C21.056 130.803 21.5893 132.179 22.656 133.224C23.744 134.269 25.3973 134.792 27.616 134.792C28.576 134.792 29.504 134.653 30.4 134.376C31.3173 134.099 32.0853 133.619 32.704 132.936H26.464V127.752ZM52.9903 141.32C49.3423 141.32 46.6543 140.488 44.9263 138.824C43.2196 137.139 42.3663 134.931 42.3663 132.2C42.3663 129.533 43.2196 127.368 44.9263 125.704C46.6543 124.04 49.3423 123.208 52.9903 123.208C55.4436 123.208 57.4916 123.613 59.1343 124.424C60.7983 125.213 62.0249 126.291 62.8143 127.656C63.6036 129 63.9983 130.515 63.9983 132.2C63.9983 134.952 63.0809 137.16 61.2463 138.824C59.4329 140.488 56.6809 141.32 52.9903 141.32ZM53.1183 135.88C54.5049 135.88 55.5396 135.549 56.2223 134.888C56.9049 134.227 57.2463 133.341 57.2463 132.232C57.2463 131.187 56.9049 130.333 56.2223 129.672C55.5396 128.989 54.5049 128.648 53.1183 128.648C51.7316 128.648 50.7183 128.979 50.0783 129.64C49.4383 130.301 49.1183 131.165 49.1183 132.232C49.1183 133.341 49.4383 134.227 50.0783 134.888C50.7183 135.549 51.7316 135.88 53.1183 135.88ZM73.8008 135.144C81.9074 135.101 87.7848 134.984 91.4328 134.792C91.2834 135.667 91.1874 136.573 91.1448 137.512C91.1234 138.429 91.1128 139.592 91.1128 141H66.2488C66.4194 136.861 66.5048 132.989 66.5048 129.384C66.5048 125.779 66.4194 121.907 66.2488 117.768H91.1128V123.56H73.8008V126.632C74.8248 126.653 76.3394 126.664 78.3448 126.664C81.7368 126.664 85.2461 126.6 88.8728 126.472V131.976C85.2461 131.848 81.7368 131.784 78.3448 131.784C76.3394 131.784 74.8248 131.795 73.8008 131.816V135.144ZM114.511 135.688C114.511 136.413 114.596 136.925 114.767 137.224C114.937 137.523 115.279 137.736 115.791 137.864L115.663 140.872C114.98 140.979 114.383 141.053 113.871 141.096C113.38 141.139 112.719 141.16 111.887 141.16C110.052 141.16 108.836 140.755 108.239 139.944C107.641 139.112 107.343 138.056 107.343 136.776V135.976C106.724 137.725 105.817 139.027 104.623 139.88C103.449 140.733 101.945 141.16 100.111 141.16C97.9774 141.16 96.3668 140.733 95.2788 139.88C94.2121 139.027 93.6788 137.757 93.6788 136.072C93.6788 134.685 94.1374 133.597 95.0548 132.808C95.9721 132.019 97.3908 131.475 99.3108 131.176C97.6894 130.024 96.0681 129.021 94.4468 128.168C95.7268 126.547 97.1881 125.32 98.8308 124.488C100.473 123.635 102.468 123.208 104.815 123.208C108.1 123.208 110.532 123.923 112.111 125.352C113.711 126.76 114.511 128.936 114.511 131.88V135.688ZM105.487 128.84C104.399 128.84 103.439 129.021 102.607 129.384C101.775 129.747 101.028 130.291 100.367 131.016C101.647 130.867 103.247 130.792 105.167 130.792C105.956 130.792 106.511 130.696 106.831 130.504C107.151 130.312 107.311 130.067 107.311 129.768C107.311 129.512 107.151 129.299 106.831 129.128C106.511 128.936 106.063 128.84 105.487 128.84ZM102.127 135.944C103.321 135.944 104.399 135.72 105.359 135.272C106.319 134.803 106.98 134.195 107.343 133.448V132.616C106.831 132.872 106.265 133.075 105.647 133.224C105.028 133.352 104.281 133.48 103.407 133.608L102.255 133.8C101.06 134.035 100.463 134.44 100.463 135.016C100.463 135.635 101.017 135.944 102.127 135.944ZM128.054 141.32C126.262 141.32 124.438 141.075 122.582 140.584C120.747 140.072 119.019 139.304 117.398 138.28L120.758 133.704C121.739 134.408 122.923 134.963 124.31 135.368C125.696 135.752 126.891 135.944 127.894 135.944C128.854 135.944 129.59 135.816 130.102 135.56C130.635 135.283 130.902 134.931 130.902 134.504C130.902 134.163 130.774 133.896 130.518 133.704C130.262 133.512 129.91 133.416 129.462 133.416C129.184 133.416 128.864 133.427 128.502 133.448C128.16 133.469 127.883 133.491 127.67 133.512C126.56 133.64 125.419 133.704 124.246 133.704C122.347 133.704 120.8 133.352 119.606 132.648C118.432 131.923 117.846 130.749 117.846 129.128C117.846 127.251 118.731 125.8 120.502 124.776C122.272 123.731 124.875 123.208 128.31 123.208C129.995 123.208 131.691 123.453 133.398 123.944C135.126 124.413 136.651 125.128 137.974 126.088L134.294 129.8C133.078 129.16 131.936 128.712 130.87 128.456C129.824 128.179 128.768 128.04 127.702 128.04C126.955 128.04 126.315 128.189 125.782 128.488C125.248 128.787 124.982 129.128 124.982 129.512C124.982 129.811 125.088 130.045 125.302 130.216C125.536 130.387 125.835 130.472 126.198 130.472C126.56 130.472 127.062 130.44 127.702 130.376C129.259 130.269 130.422 130.216 131.19 130.216C133.408 130.216 135.126 130.589 136.342 131.336C137.558 132.083 138.166 133.224 138.166 134.76C138.166 137.064 137.27 138.739 135.478 139.784C133.686 140.808 131.211 141.32 128.054 141.32ZM161.461 123.528L160.725 125.384C158.698 130.781 156.576 135.987 154.357 141C153.205 143.56 151.541 145.608 149.365 147.144C147.189 148.701 144.458 149.448 141.173 149.384C140.768 147.613 140.426 146.227 140.149 145.224C139.893 144.243 139.552 143.251 139.125 142.248C140.298 142.525 141.397 142.664 142.421 142.664C144.085 142.664 145.408 142.312 146.389 141.608C145.621 139.325 144.714 136.872 143.669 134.248C142.624 131.624 141.109 128.051 139.125 123.528H146.709C146.965 124.595 147.317 125.832 147.765 127.24C148.213 128.648 148.661 130.003 149.109 131.304C149.237 131.709 149.44 132.328 149.717 133.16C150.016 133.971 150.25 134.653 150.421 135.208L151.253 132.68C152.853 128.051 153.802 125 154.101 123.528H161.461Z"/>
</mask>
<path d="M26.464 127.752H40.128V141H34.496L33.824 135.336C33.184 137.363 32.0427 138.867 30.4 139.848C28.7573 140.829 26.752 141.32 24.384 141.32C22.2293 141.32 20.3093 140.84 18.624 139.88C16.96 138.92 15.648 137.544 14.688 135.752C13.7493 133.96 13.28 131.869 13.28 129.48C13.28 125.661 14.4213 122.643 16.704 120.424C18.9867 118.205 22.5387 117.096 27.36 117.096C30.112 117.096 32.5333 117.544 34.624 118.44C36.736 119.336 38.528 120.723 40 122.6C39.04 123.091 37.1627 124.072 34.368 125.544L33.568 125.992C32.736 125.16 31.7653 124.541 30.656 124.136C29.5467 123.709 28.3733 123.496 27.136 123.496C25.088 123.496 23.5627 124.04 22.56 125.128C21.5573 126.195 21.056 127.517 21.056 129.096C21.056 130.803 21.5893 132.179 22.656 133.224C23.744 134.269 25.3973 134.792 27.616 134.792C28.576 134.792 29.504 134.653 30.4 134.376C31.3173 134.099 32.0853 133.619 32.704 132.936H26.464V127.752ZM52.9903 141.32C49.3423 141.32 46.6543 140.488 44.9263 138.824C43.2196 137.139 42.3663 134.931 42.3663 132.2C42.3663 129.533 43.2196 127.368 44.9263 125.704C46.6543 124.04 49.3423 123.208 52.9903 123.208C55.4436 123.208 57.4916 123.613 59.1343 124.424C60.7983 125.213 62.0249 126.291 62.8143 127.656C63.6036 129 63.9983 130.515 63.9983 132.2C63.9983 134.952 63.0809 137.16 61.2463 138.824C59.4329 140.488 56.6809 141.32 52.9903 141.32ZM53.1183 135.88C54.5049 135.88 55.5396 135.549 56.2223 134.888C56.9049 134.227 57.2463 133.341 57.2463 132.232C57.2463 131.187 56.9049 130.333 56.2223 129.672C55.5396 128.989 54.5049 128.648 53.1183 128.648C51.7316 128.648 50.7183 128.979 50.0783 129.64C49.4383 130.301 49.1183 131.165 49.1183 132.232C49.1183 133.341 49.4383 134.227 50.0783 134.888C50.7183 135.549 51.7316 135.88 53.1183 135.88ZM73.8008 135.144C81.9074 135.101 87.7848 134.984 91.4328 134.792C91.2834 135.667 91.1874 136.573 91.1448 137.512C91.1234 138.429 91.1128 139.592 91.1128 141H66.2488C66.4194 136.861 66.5048 132.989 66.5048 129.384C66.5048 125.779 66.4194 121.907 66.2488 117.768H91.1128V123.56H73.8008V126.632C74.8248 126.653 76.3394 126.664 78.3448 126.664C81.7368 126.664 85.2461 126.6 88.8728 126.472V131.976C85.2461 131.848 81.7368 131.784 78.3448 131.784C76.3394 131.784 74.8248 131.795 73.8008 131.816V135.144ZM114.511 135.688C114.511 136.413 114.596 136.925 114.767 137.224C114.937 137.523 115.279 137.736 115.791 137.864L115.663 140.872C114.98 140.979 114.383 141.053 113.871 141.096C113.38 141.139 112.719 141.16 111.887 141.16C110.052 141.16 108.836 140.755 108.239 139.944C107.641 139.112 107.343 138.056 107.343 136.776V135.976C106.724 137.725 105.817 139.027 104.623 139.88C103.449 140.733 101.945 141.16 100.111 141.16C97.9774 141.16 96.3668 140.733 95.2788 139.88C94.2121 139.027 93.6788 137.757 93.6788 136.072C93.6788 134.685 94.1374 133.597 95.0548 132.808C95.9721 132.019 97.3908 131.475 99.3108 131.176C97.6894 130.024 96.0681 129.021 94.4468 128.168C95.7268 126.547 97.1881 125.32 98.8308 124.488C100.473 123.635 102.468 123.208 104.815 123.208C108.1 123.208 110.532 123.923 112.111 125.352C113.711 126.76 114.511 128.936 114.511 131.88V135.688ZM105.487 128.84C104.399 128.84 103.439 129.021 102.607 129.384C101.775 129.747 101.028 130.291 100.367 131.016C101.647 130.867 103.247 130.792 105.167 130.792C105.956 130.792 106.511 130.696 106.831 130.504C107.151 130.312 107.311 130.067 107.311 129.768C107.311 129.512 107.151 129.299 106.831 129.128C106.511 128.936 106.063 128.84 105.487 128.84ZM102.127 135.944C103.321 135.944 104.399 135.72 105.359 135.272C106.319 134.803 106.98 134.195 107.343 133.448V132.616C106.831 132.872 106.265 133.075 105.647 133.224C105.028 133.352 104.281 133.48 103.407 133.608L102.255 133.8C101.06 134.035 100.463 134.44 100.463 135.016C100.463 135.635 101.017 135.944 102.127 135.944ZM128.054 141.32C126.262 141.32 124.438 141.075 122.582 140.584C120.747 140.072 119.019 139.304 117.398 138.28L120.758 133.704C121.739 134.408 122.923 134.963 124.31 135.368C125.696 135.752 126.891 135.944 127.894 135.944C128.854 135.944 129.59 135.816 130.102 135.56C130.635 135.283 130.902 134.931 130.902 134.504C130.902 134.163 130.774 133.896 130.518 133.704C130.262 133.512 129.91 133.416 129.462 133.416C129.184 133.416 128.864 133.427 128.502 133.448C128.16 133.469 127.883 133.491 127.67 133.512C126.56 133.64 125.419 133.704 124.246 133.704C122.347 133.704 120.8 133.352 119.606 132.648C118.432 131.923 117.846 130.749 117.846 129.128C117.846 127.251 118.731 125.8 120.502 124.776C122.272 123.731 124.875 123.208 128.31 123.208C129.995 123.208 131.691 123.453 133.398 123.944C135.126 124.413 136.651 125.128 137.974 126.088L134.294 129.8C133.078 129.16 131.936 128.712 130.87 128.456C129.824 128.179 128.768 128.04 127.702 128.04C126.955 128.04 126.315 128.189 125.782 128.488C125.248 128.787 124.982 129.128 124.982 129.512C124.982 129.811 125.088 130.045 125.302 130.216C125.536 130.387 125.835 130.472 126.198 130.472C126.56 130.472 127.062 130.44 127.702 130.376C129.259 130.269 130.422 130.216 131.19 130.216C133.408 130.216 135.126 130.589 136.342 131.336C137.558 132.083 138.166 133.224 138.166 134.76C138.166 137.064 137.27 138.739 135.478 139.784C133.686 140.808 131.211 141.32 128.054 141.32ZM161.461 123.528L160.725 125.384C158.698 130.781 156.576 135.987 154.357 141C153.205 143.56 151.541 145.608 149.365 147.144C147.189 148.701 144.458 149.448 141.173 149.384C140.768 147.613 140.426 146.227 140.149 145.224C139.893 144.243 139.552 143.251 139.125 142.248C140.298 142.525 141.397 142.664 142.421 142.664C144.085 142.664 145.408 142.312 146.389 141.608C145.621 139.325 144.714 136.872 143.669 134.248C142.624 131.624 141.109 128.051 139.125 123.528H146.709C146.965 124.595 147.317 125.832 147.765 127.24C148.213 128.648 148.661 130.003 149.109 131.304C149.237 131.709 149.44 132.328 149.717 133.16C150.016 133.971 150.25 134.653 150.421 135.208L151.253 132.68C152.853 128.051 153.802 125 154.101 123.528H161.461Z" fill="#F7931E"/>
<path d="M26.464 127.752V126.752H25.464V127.752H26.464ZM40.128 127.752H41.128V126.752H40.128V127.752ZM40.128 141V142H41.128V141H40.128ZM34.496 141L33.503 141.118L33.6076 142H34.496V141ZM33.824 135.336L34.817 135.218L32.8704 135.035L33.824 135.336ZM30.4 139.848L30.9129 140.706V140.706L30.4 139.848ZM18.624 139.88L18.1243 140.746L18.129 140.749L18.624 139.88ZM14.688 135.752L13.8021 136.216L13.8065 136.224L14.688 135.752ZM16.704 120.424L17.401 121.141H17.401L16.704 120.424ZM34.624 118.44L34.2301 119.359L34.2334 119.361L34.624 118.44ZM40 122.6L40.4551 123.49L41.5358 122.938L40.7869 121.983L40 122.6ZM34.368 125.544L33.902 124.659L33.8906 124.665L33.8794 124.671L34.368 125.544ZM33.568 125.992L32.8609 126.699L33.3961 127.234L34.0566 126.865L33.568 125.992ZM30.656 124.136L30.297 125.069L30.3049 125.072L30.3128 125.075L30.656 124.136ZM22.56 125.128L23.2887 125.813L23.2954 125.806L22.56 125.128ZM22.656 133.224L21.956 133.938L21.9632 133.945L22.656 133.224ZM30.4 134.376L30.1106 133.419L30.1043 133.421L30.4 134.376ZM32.704 132.936L33.445 133.608L34.9598 131.936H32.704V132.936ZM26.464 132.936H25.464V133.936H26.464V132.936ZM26.464 127.752V128.752H40.128V127.752V126.752H26.464V127.752ZM40.128 127.752H39.128V141H40.128H41.128V127.752H40.128ZM40.128 141V140H34.496V141V142H40.128V141ZM34.496 141L35.489 140.882L34.817 135.218L33.824 135.336L32.831 135.454L33.503 141.118L34.496 141ZM33.824 135.336L32.8704 135.035C32.2954 136.856 31.2959 138.148 29.8871 138.99L30.4 139.848L30.9129 140.706C32.7895 139.585 34.0726 137.869 34.7776 135.637L33.824 135.336ZM30.4 139.848L29.8871 138.99C28.4324 139.859 26.6141 140.32 24.384 140.32V141.32V142.32C26.8899 142.32 29.0822 141.8 30.9129 140.706L30.4 139.848ZM24.384 141.32V140.32C22.3832 140.32 20.6372 139.876 19.119 139.011L18.624 139.88L18.129 140.749C19.9814 141.804 22.0755 142.32 24.384 142.32V141.32ZM18.624 139.88L19.1237 139.014C17.6308 138.152 16.4468 136.917 15.5695 135.28L14.688 135.752L13.8065 136.224C14.8492 138.171 16.2892 139.688 18.1243 140.746L18.624 139.88ZM14.688 135.752L15.5738 135.288C14.7226 133.663 14.28 131.737 14.28 129.48H13.28H12.28C12.28 132.002 12.776 134.257 13.8022 136.216L14.688 135.752ZM13.28 129.48H14.28C14.28 125.873 15.35 123.135 17.401 121.141L16.704 120.424L16.007 119.707C13.4927 122.151 12.28 125.449 12.28 129.48H13.28ZM16.704 120.424L17.401 121.141C19.4203 119.178 22.6677 118.096 27.36 118.096V117.096V116.096C22.4097 116.096 18.553 117.232 16.007 119.707L16.704 120.424ZM27.36 117.096V118.096C30.0044 118.096 32.2871 118.526 34.2301 119.359L34.624 118.44L35.0179 117.521C32.7795 116.562 30.2196 116.096 27.36 116.096V117.096ZM34.624 118.44L34.2334 119.361C36.1835 120.188 37.8411 121.467 39.2131 123.217L40 122.6L40.7869 121.983C39.2149 119.978 37.2885 118.484 35.0146 117.519L34.624 118.44ZM40 122.6L39.5449 121.71C38.5785 122.203 36.6958 123.188 33.902 124.659L34.368 125.544L34.834 126.429C37.6295 124.956 39.5015 123.978 40.4551 123.49L40 122.6ZM34.368 125.544L33.8794 124.671L33.0794 125.119L33.568 125.992L34.0566 126.865L34.8566 126.417L34.368 125.544ZM33.568 125.992L34.2751 125.285C33.3398 124.35 32.2448 123.652 30.9992 123.197L30.656 124.136L30.3128 125.075C31.2859 125.431 32.1323 125.97 32.8609 126.699L33.568 125.992ZM30.656 124.136L31.015 123.203C29.7864 122.73 28.491 122.496 27.136 122.496V123.496V124.496C28.2557 124.496 29.3069 124.689 30.297 125.069L30.656 124.136ZM27.136 123.496V122.496C24.9194 122.496 23.0806 123.088 21.8246 124.45L22.56 125.128L23.2954 125.806C24.0448 124.992 25.2566 124.496 27.136 124.496V123.496ZM22.56 125.128L21.8314 124.443C20.64 125.711 20.056 127.285 20.056 129.096H21.056H22.056C22.056 127.75 22.4747 126.679 23.2886 125.813L22.56 125.128ZM21.056 129.096H20.056C20.056 131.03 20.6695 132.677 21.9561 133.938L22.656 133.224L23.3559 132.51C22.5091 131.68 22.056 130.576 22.056 129.096H21.056ZM22.656 133.224L21.9632 133.945C23.3091 135.238 25.2594 135.792 27.616 135.792V134.792V133.792C25.5353 133.792 24.1789 133.3 23.3488 132.503L22.656 133.224ZM27.616 134.792V135.792C28.6739 135.792 29.7017 135.639 30.6957 135.331L30.4 134.376L30.1043 133.421C29.3063 133.668 28.4781 133.792 27.616 133.792V134.792ZM30.4 134.376L30.6894 135.333C31.7731 135.006 32.6995 134.43 33.445 133.608L32.704 132.936L31.963 132.264C31.4712 132.807 30.8616 133.192 30.1106 133.419L30.4 134.376ZM32.704 132.936V131.936H26.464V132.936V133.936H32.704V132.936ZM26.464 132.936H27.464V127.752H26.464H25.464V132.936H26.464ZM44.9263 138.824L44.2235 139.536L44.2326 139.544L44.9263 138.824ZM44.9263 125.704L44.2326 124.984L44.2281 124.988L44.9263 125.704ZM59.1343 124.424L58.6917 125.321L58.6987 125.324L58.7057 125.328L59.1343 124.424ZM62.8143 127.656L61.9485 128.157L61.952 128.162L62.8143 127.656ZM61.2463 138.824L60.5744 138.083L60.5701 138.087L61.2463 138.824ZM56.2223 129.672L55.5151 130.379L55.5208 130.385L55.5265 130.39L56.2223 129.672ZM50.0783 129.64L49.3596 128.945V128.945L50.0783 129.64ZM50.0783 134.888L50.7969 134.193V134.193L50.0783 134.888ZM52.9902 141.32V140.32C49.4693 140.32 47.0845 139.514 45.6199 138.104L44.9263 138.824L44.2326 139.544C46.224 141.462 49.2152 142.32 52.9902 142.32V141.32ZM44.9263 138.824L45.6289 138.112C44.1394 136.642 43.3662 134.704 43.3662 132.2H42.3662H41.3662C41.3662 135.158 42.2998 137.636 44.2236 139.536L44.9263 138.824ZM42.3662 132.2H43.3662C43.3662 129.768 44.1345 127.873 45.6244 126.42L44.9263 125.704L44.2281 124.988C42.3047 126.863 41.3662 129.299 41.3662 132.2H42.3662ZM44.9263 125.704L45.6199 126.424C47.0845 125.014 49.4693 124.208 52.9902 124.208V123.208V122.208C49.2152 122.208 46.224 123.066 44.2326 124.984L44.9263 125.704ZM52.9902 123.208V124.208C55.3398 124.208 57.2252 124.597 58.6917 125.321L59.1343 124.424L59.5768 123.527C57.758 122.63 55.5474 122.208 52.9902 122.208V123.208ZM59.1343 124.424L58.7057 125.328C60.218 126.045 61.2769 126.995 61.9485 128.157L62.8143 127.656L63.68 127.155C62.773 125.587 61.3785 124.382 59.5628 123.52L59.1343 124.424ZM62.8143 127.656L61.952 128.162C62.6438 129.34 62.9983 130.678 62.9983 132.2H63.9983H64.9983C64.9983 130.352 64.5633 128.66 63.6765 127.15L62.8143 127.656ZM63.9983 132.2H62.9983C62.9983 134.705 62.1756 136.631 60.5744 138.083L61.2463 138.824L61.9181 139.565C63.9862 137.689 64.9983 135.199 64.9983 132.2H63.9983ZM61.2463 138.824L60.5701 138.087C59.0149 139.514 56.5526 140.32 52.9902 140.32V141.32V142.32C56.8092 142.32 59.8509 141.462 61.9224 139.561L61.2463 138.824ZM53.1183 135.88V136.88C54.6461 136.88 55.9782 136.517 56.918 135.606L56.2223 134.888L55.5265 134.17C55.1009 134.582 54.3637 134.88 53.1183 134.88V135.88ZM56.2223 134.888L56.918 135.606C57.8278 134.725 58.2463 133.563 58.2463 132.232H57.2463H56.2463C56.2463 133.12 55.982 133.728 55.5265 134.17L56.2223 134.888ZM57.2463 132.232H58.2463C58.2463 130.946 57.8156 129.823 56.918 128.954L56.2223 129.672L55.5265 130.39C55.9942 130.843 56.2463 131.428 56.2463 132.232H57.2463ZM56.2223 129.672L56.9294 128.965C55.9904 128.026 54.6538 127.648 53.1183 127.648V128.648V129.648C54.356 129.648 55.0888 129.953 55.5151 130.379L56.2223 129.672ZM53.1183 128.648V127.648C51.5968 127.648 50.2653 128.009 49.3596 128.945L50.0783 129.64L50.7969 130.335C51.1712 129.949 51.8664 129.648 53.1183 129.648V128.648ZM50.0783 129.64L49.3596 128.945C48.5105 129.822 48.1183 130.95 48.1183 132.232H49.1183H50.1182C50.1182 131.38 50.366 130.781 50.7969 130.335L50.0783 129.64ZM49.1183 132.232H48.1183C48.1183 133.544 48.5032 134.698 49.3596 135.583L50.0783 134.888L50.7969 134.193C50.3733 133.755 50.1182 133.138 50.1182 132.232H49.1183ZM50.0783 134.888L49.3596 135.583C50.2653 136.519 51.5968 136.88 53.1183 136.88V135.88V134.88C51.8664 134.88 51.1712 134.579 50.7969 134.193L50.0783 134.888ZM73.8008 135.144H72.8008V136.149L73.806 136.144L73.8008 135.144ZM91.4328 134.792L92.4185 134.96L92.6289 133.728L91.3802 133.793L91.4328 134.792ZM91.1448 137.512L90.1458 137.467L90.1453 137.478L90.145 137.489L91.1448 137.512ZM91.1127 141V142H92.1127V141H91.1127ZM66.2487 141L65.2496 140.959L65.2067 142H66.2487V141ZM66.2487 117.768V116.768H65.2067L65.2496 117.809L66.2487 117.768ZM91.1127 117.768H92.1127V116.768H91.1127V117.768ZM91.1127 123.56V124.56H92.1127V123.56H91.1127ZM73.8008 123.56V122.56H72.8008V123.56H73.8008ZM73.8008 126.632H72.8008V127.611L73.7799 127.632L73.8008 126.632ZM88.8727 126.472H89.8727V125.436L88.8375 125.473L88.8727 126.472ZM88.8727 131.976L88.8375 132.975L89.8727 133.012V131.976H88.8727ZM73.8008 131.816L73.7799 130.816L72.8008 130.837V131.816H73.8008ZM73.8008 135.144L73.806 136.144C81.9142 136.101 87.8119 135.984 91.4853 135.791L91.4328 134.792L91.3802 133.793C87.7576 133.984 81.9006 134.101 73.7955 134.144L73.8008 135.144ZM91.4328 134.792L90.447 134.624C90.2903 135.541 90.1902 136.489 90.1458 137.467L91.1448 137.512L92.1437 137.557C92.1846 136.658 92.2765 135.792 92.4185 134.96L91.4328 134.792ZM91.1448 137.512L90.145 137.489C90.1234 138.417 90.1127 139.588 90.1127 141H91.1127H92.1127C92.1127 139.596 92.1234 138.442 92.1445 137.535L91.1448 137.512ZM91.1127 141V140H66.2487V141V142H91.1127V141ZM66.2487 141L67.2479 141.041C67.4191 136.891 67.5047 133.005 67.5047 129.384H66.5047H65.5047C65.5047 132.974 65.4198 136.832 65.2496 140.959L66.2487 141ZM66.5047 129.384H67.5047C67.5047 125.763 67.4191 121.877 67.2479 117.727L66.2487 117.768L65.2496 117.809C65.4198 121.936 65.5047 125.794 65.5047 129.384H66.5047ZM66.2487 117.768V118.768H91.1127V117.768V116.768H66.2487V117.768ZM91.1127 117.768H90.1127V123.56H91.1127H92.1127V117.768H91.1127ZM91.1127 123.56V122.56H73.8008V123.56V124.56H91.1127V123.56ZM73.8008 123.56H72.8008V126.632H73.8008H74.8008V123.56H73.8008ZM73.8008 126.632L73.7799 127.632C74.8146 127.653 76.3377 127.664 78.3447 127.664V126.664V125.664C76.3411 125.664 74.8349 125.653 73.8216 125.632L73.8008 126.632ZM78.3447 126.664V127.664C81.7493 127.664 85.2704 127.6 88.908 127.471L88.8727 126.472L88.8375 125.473C85.2218 125.6 81.7242 125.664 78.3447 125.664V126.664ZM88.8727 126.472H87.8727V131.976H88.8727H89.8727V126.472H88.8727ZM88.8727 131.976L88.908 130.977C85.2704 130.848 81.7493 130.784 78.3447 130.784V131.784V132.784C81.7242 132.784 85.2218 132.848 88.8375 132.975L88.8727 131.976ZM78.3447 131.784V130.784C76.3377 130.784 74.8146 130.795 73.7799 130.816L73.8008 131.816L73.8216 132.816C74.8349 132.795 76.3411 132.784 78.3447 132.784V131.784ZM73.8008 131.816H72.8008V135.144H73.8008H74.8008V131.816H73.8008ZM114.767 137.224L113.899 137.72V137.72L114.767 137.224ZM115.791 137.864L116.79 137.907L116.825 137.092L116.033 136.894L115.791 137.864ZM115.663 140.872L115.817 141.86L116.627 141.733L116.662 140.915L115.663 140.872ZM113.871 141.096L113.788 140.099L113.784 140.1L113.871 141.096ZM108.239 139.944L107.426 140.527L107.434 140.537L108.239 139.944ZM107.343 135.976H108.343L106.4 135.643L107.343 135.976ZM104.623 139.88L104.041 139.066L104.035 139.071L104.623 139.88ZM95.2787 139.88L94.654 140.661L94.6616 140.667L95.2787 139.88ZM95.0547 132.808L95.707 133.566V133.566L95.0547 132.808ZM99.3108 131.176L99.4645 132.164L101.896 131.786L99.89 130.361L99.3108 131.176ZM94.4467 128.168L93.6619 127.548L92.9164 128.493L93.981 129.053L94.4467 128.168ZM98.8307 124.488L99.2826 125.38L99.2917 125.375L98.8307 124.488ZM112.111 125.352L111.44 126.093L111.45 126.103L112.111 125.352ZM102.607 129.384L103.006 130.301V130.301L102.607 129.384ZM100.367 131.016L99.6278 130.342L97.8252 132.319L100.483 132.009L100.367 131.016ZM106.831 130.504L106.316 129.647V129.647L106.831 130.504ZM106.831 129.128L106.316 129.985L106.338 129.998L106.36 130.01L106.831 129.128ZM105.359 135.272L105.782 136.178L105.79 136.174L105.798 136.17L105.359 135.272ZM107.343 133.448L108.242 133.885L108.343 133.678V133.448H107.343ZM107.343 132.616H108.343V130.998L106.896 131.722L107.343 132.616ZM105.647 133.224L105.849 134.203L105.865 134.2L105.881 134.196L105.647 133.224ZM103.407 133.608L103.262 132.619L103.252 132.62L103.242 132.622L103.407 133.608ZM102.255 133.8L102.09 132.814L102.076 132.816L102.062 132.819L102.255 133.8ZM114.511 135.688H113.511C113.511 136.434 113.588 137.178 113.899 137.72L114.767 137.224L115.635 136.728C115.635 136.728 115.632 136.723 115.627 136.711C115.622 136.7 115.616 136.683 115.608 136.659C115.593 136.611 115.576 136.543 115.561 136.452C115.53 136.267 115.511 136.015 115.511 135.688H114.511ZM114.767 137.224L113.899 137.72C114.262 138.356 114.911 138.675 115.548 138.834L115.791 137.864L116.033 136.894C115.646 136.797 115.613 136.689 115.635 136.728L114.767 137.224ZM115.791 137.864L114.792 137.821L114.664 140.829L115.663 140.872L116.662 140.915L116.79 137.907L115.791 137.864ZM115.663 140.872L115.508 139.884C114.842 139.988 114.269 140.059 113.788 140.099L113.871 141.096L113.954 142.093C114.496 142.047 115.118 141.969 115.817 141.86L115.663 140.872ZM113.871 141.096L113.784 140.1C113.335 140.139 112.707 140.16 111.887 140.16V141.16V142.16C112.731 142.16 113.425 142.139 113.957 142.092L113.871 141.096ZM111.887 141.16V140.16C110.121 140.16 109.342 139.756 109.044 139.351L108.239 139.944L107.434 140.537C108.33 141.753 109.983 142.16 111.887 142.16V141.16ZM108.239 139.944L109.051 139.361C108.603 138.737 108.343 137.9 108.343 136.776H107.343H106.343C106.343 138.212 106.68 139.487 107.426 140.527L108.239 139.944ZM107.343 136.776H108.343V135.976H107.343H106.343V136.776H107.343ZM107.343 135.976L106.4 135.643C105.832 137.25 105.03 138.36 104.042 139.066L104.623 139.88L105.204 140.694C106.605 139.693 107.617 138.201 108.286 136.309L107.343 135.976ZM104.623 139.88L104.035 139.071C103.073 139.771 101.79 140.16 100.111 140.16V141.16V142.16C102.1 142.16 103.826 141.696 105.211 140.689L104.623 139.88ZM100.111 141.16V140.16C98.0864 140.16 96.7349 139.751 95.8959 139.093L95.2787 139.88L94.6616 140.667C95.9986 141.715 97.8684 142.16 100.111 142.16V141.16ZM95.2787 139.88L95.9034 139.099C95.129 138.48 94.6787 137.532 94.6787 136.072H93.6787H92.6787C92.6787 137.983 93.2952 139.574 94.6541 140.661L95.2787 139.88ZM93.6787 136.072H94.6787C94.6787 134.929 95.0439 134.137 95.707 133.566L95.0547 132.808L94.4025 132.05C93.2309 133.058 92.6787 134.441 92.6787 136.072H93.6787ZM95.0547 132.808L95.707 133.566C96.4214 132.951 97.6276 132.45 99.4645 132.164L99.3108 131.176L99.157 130.188C97.1539 130.499 95.5228 131.086 94.4025 132.05L95.0547 132.808ZM99.3108 131.176L99.89 130.361C98.2354 129.185 96.5763 128.159 94.9125 127.283L94.4467 128.168L93.981 129.053C95.5598 129.884 97.1434 130.863 98.7315 131.991L99.3108 131.176ZM94.4467 128.168L95.2316 128.788C96.4327 127.266 97.7844 126.139 99.2826 125.38L98.8307 124.488L98.3789 123.596C96.5918 124.501 95.0208 125.827 93.6619 127.548L94.4467 128.168ZM98.8307 124.488L99.2917 125.375C100.759 124.613 102.587 124.208 104.815 124.208V123.208V122.208C102.35 122.208 100.188 122.656 98.3698 123.601L98.8307 124.488ZM104.815 123.208V124.208C107.982 124.208 110.122 124.901 111.44 126.093L112.111 125.352L112.782 124.611C110.942 122.945 108.219 122.208 104.815 122.208V123.208ZM112.111 125.352L111.45 126.103C112.761 127.257 113.511 129.109 113.511 131.88H114.511H115.511C115.511 128.763 114.66 126.263 112.771 124.601L112.111 125.352ZM114.511 131.88H113.511V135.688H114.511H115.511V131.88H114.511ZM105.487 128.84V127.84C104.288 127.84 103.188 128.04 102.207 128.467L102.607 129.384L103.006 130.301C103.69 130.003 104.509 129.84 105.487 129.84V128.84ZM102.607 129.384L102.207 128.467C101.236 128.891 100.376 129.522 99.6278 130.342L100.367 131.016L101.106 131.69C101.68 131.06 102.314 130.603 103.006 130.301L102.607 129.384ZM100.367 131.016L100.483 132.009C101.71 131.866 103.269 131.792 105.167 131.792V130.792V129.792C103.225 129.792 101.583 129.867 100.251 130.023L100.367 131.016ZM105.167 130.792V131.792C105.976 131.792 106.774 131.704 107.345 131.361L106.831 130.504L106.316 129.647C106.248 129.688 105.936 129.792 105.167 129.792V130.792ZM106.831 130.504L107.345 131.361C107.88 131.041 108.311 130.509 108.311 129.768H107.311H106.311C106.311 129.752 106.313 129.728 106.321 129.7C106.33 129.671 106.342 129.647 106.353 129.63C106.375 129.596 106.381 129.608 106.316 129.647L106.831 130.504ZM107.311 129.768H108.311C108.311 128.996 107.794 128.508 107.301 128.246L106.831 129.128L106.36 130.01C106.435 130.05 106.424 130.061 106.391 130.016C106.372 129.992 106.351 129.955 106.334 129.907C106.318 129.858 106.311 129.81 106.311 129.768H107.311ZM106.831 129.128L107.345 128.271C106.807 127.948 106.154 127.84 105.487 127.84V128.84V129.84C105.972 129.84 106.214 129.924 106.316 129.985L106.831 129.128ZM102.127 135.944V136.944C103.449 136.944 104.673 136.695 105.782 136.178L105.359 135.272L104.936 134.366C104.124 134.745 103.194 134.944 102.127 134.944V135.944ZM105.359 135.272L105.798 136.17C106.9 135.631 107.757 134.884 108.242 133.885L107.343 133.448L106.443 133.011C106.203 133.505 105.737 133.974 104.92 134.374L105.359 135.272ZM107.343 133.448H108.343V132.616H107.343H106.343V133.448H107.343ZM107.343 132.616L106.896 131.722C106.458 131.94 105.965 132.118 105.412 132.252L105.647 133.224L105.881 134.196C106.566 134.031 107.203 133.804 107.79 133.51L107.343 132.616ZM105.647 133.224L105.444 132.245C104.85 132.368 104.124 132.492 103.262 132.619L103.407 133.608L103.552 134.597C104.439 134.468 105.206 134.336 105.849 134.203L105.647 133.224ZM103.407 133.608L103.242 132.622L102.09 132.814L102.255 133.8L102.419 134.786L103.571 134.594L103.407 133.608ZM102.255 133.8L102.062 132.819C101.411 132.947 100.81 133.14 100.349 133.453C99.8547 133.788 99.4628 134.312 99.4628 135.016H100.463H101.463C101.463 135.055 101.45 135.101 101.429 135.136C101.413 135.163 101.412 135.148 101.472 135.107C101.608 135.015 101.904 134.888 102.447 134.781L102.255 133.8ZM100.463 135.016H99.4628C99.4628 135.325 99.5336 135.643 99.7084 135.935C99.8824 136.226 100.127 136.438 100.392 136.585C100.891 136.864 101.512 136.944 102.127 136.944V135.944V134.944C101.893 134.944 101.714 134.927 101.582 134.903C101.447 134.878 101.384 134.849 101.366 134.839C101.353 134.832 101.39 134.85 101.425 134.909C101.461 134.969 101.463 135.017 101.463 135.016H100.463ZM122.581 140.584L122.313 141.547L122.326 141.551L122.581 140.584ZM117.397 138.28L116.591 137.688L115.957 138.553L116.864 139.125L117.397 138.28ZM120.757 133.704L121.34 132.891L120.537 132.315L119.951 133.112L120.757 133.704ZM124.31 135.368L124.029 136.328L124.036 136.33L124.043 136.332L124.31 135.368ZM130.102 135.56L130.549 136.454L130.556 136.451L130.563 136.447L130.102 135.56ZM128.502 133.448L128.443 132.45L128.439 132.45L128.502 133.448ZM127.67 133.512L127.57 132.517L127.562 132.518L127.555 132.519L127.67 133.512ZM119.605 132.648L119.08 133.499L119.089 133.504L119.098 133.51L119.605 132.648ZM120.502 124.776L121.002 125.642L121.01 125.637L120.502 124.776ZM133.397 123.944L133.121 124.905L133.128 124.907L133.135 124.909L133.397 123.944ZM137.974 126.088L138.684 126.792L139.505 125.964L138.561 125.279L137.974 126.088ZM134.294 129.8L133.828 130.685L134.483 131.03L135.004 130.504L134.294 129.8ZM130.869 128.456L130.613 129.423L130.625 129.426L130.636 129.428L130.869 128.456ZM125.782 128.488L125.293 127.615V127.615L125.782 128.488ZM125.301 130.216L124.677 130.997L124.695 131.011L124.713 131.025L125.301 130.216ZM127.701 130.376L127.633 129.378L127.618 129.379L127.602 129.381L127.701 130.376ZM136.341 131.336L136.865 130.484V130.484L136.341 131.336ZM135.478 139.784L135.974 140.652L135.981 140.648L135.478 139.784ZM128.053 141.32V140.32C126.354 140.32 124.616 140.087 122.837 139.617L122.581 140.584L122.326 141.551C124.259 142.062 126.169 142.32 128.053 142.32V141.32ZM122.581 140.584L122.85 139.621C121.11 139.135 119.471 138.407 117.931 137.435L117.397 138.28L116.864 139.125C118.566 140.201 120.384 141.009 122.313 141.547L122.581 140.584ZM117.397 138.28L118.204 138.872L121.564 134.296L120.757 133.704L119.951 133.112L116.591 137.688L117.397 138.28ZM120.757 133.704L120.175 134.517C121.264 135.298 122.555 135.897 124.029 136.328L124.31 135.368L124.59 134.408C123.291 134.028 122.214 133.518 121.34 132.891L120.757 133.704ZM124.31 135.368L124.043 136.332C125.482 136.73 126.771 136.944 127.894 136.944V135.944V134.944C127.011 134.944 125.91 134.774 124.576 134.404L124.31 135.368ZM127.894 135.944V136.944C128.917 136.944 129.834 136.812 130.549 136.454L130.102 135.56L129.654 134.666C129.345 134.82 128.79 134.944 127.894 134.944V135.944ZM130.102 135.56L130.563 136.447C131.273 136.078 131.902 135.45 131.902 134.504H130.902H129.902C129.902 134.505 129.902 134.497 129.905 134.486C129.909 134.476 129.912 134.475 129.904 134.484C129.887 134.507 129.82 134.579 129.64 134.673L130.102 135.56ZM130.902 134.504H131.902C131.902 133.872 131.644 133.299 131.118 132.904L130.518 133.704L129.918 134.504C129.924 134.509 129.923 134.509 129.919 134.504C129.917 134.501 129.914 134.498 129.911 134.494C129.908 134.489 129.906 134.485 129.904 134.481C129.9 134.472 129.899 134.466 129.899 134.468C129.899 134.47 129.902 134.481 129.902 134.504H130.902ZM130.518 133.704L131.118 132.904C130.631 132.539 130.041 132.416 129.462 132.416V133.416V134.416C129.778 134.416 129.892 134.485 129.918 134.504L130.518 133.704ZM129.462 133.416V132.416C129.16 132.416 128.819 132.428 128.443 132.45L128.502 133.448L128.56 134.446C128.909 134.426 129.209 134.416 129.462 134.416V133.416ZM128.502 133.448L128.439 132.45C128.092 132.472 127.801 132.494 127.57 132.517L127.67 133.512L127.769 134.507C127.965 134.487 128.229 134.467 128.564 134.446L128.502 133.448ZM127.67 133.512L127.555 132.519C126.485 132.642 125.382 132.704 124.245 132.704V133.704V134.704C125.455 134.704 126.635 134.638 127.784 134.505L127.67 133.512ZM124.245 133.704V132.704C122.462 132.704 121.107 132.372 120.113 131.786L119.605 132.648L119.098 133.51C120.493 134.332 122.232 134.704 124.245 134.704V133.704ZM119.605 132.648L120.131 131.797C119.309 131.289 118.845 130.474 118.845 129.128H117.845H116.845C116.845 131.025 117.556 132.556 119.08 133.499L119.605 132.648ZM117.845 129.128H118.845C118.845 127.645 119.507 126.506 121.002 125.642L120.502 124.776L120.001 123.91C117.955 125.094 116.845 126.856 116.845 129.128H117.845ZM120.502 124.776L121.01 125.637C122.555 124.725 124.947 124.208 128.31 124.208V123.208V122.208C124.802 122.208 121.989 122.737 119.993 123.915L120.502 124.776ZM128.31 123.208V124.208C129.896 124.208 131.5 124.439 133.121 124.905L133.397 123.944L133.674 122.983C131.882 122.468 130.093 122.208 128.31 122.208V123.208ZM133.397 123.944L133.135 124.909C134.758 125.35 136.171 126.015 137.386 126.897L137.974 126.088L138.561 125.279C137.131 124.241 135.493 123.477 133.66 122.979L133.397 123.944ZM137.974 126.088L137.263 125.384L133.583 129.096L134.294 129.8L135.004 130.504L138.684 126.792L137.974 126.088ZM134.294 129.8L134.759 128.915C133.487 128.246 132.268 127.763 131.103 127.484L130.869 128.456L130.636 129.428C131.605 129.661 132.668 130.074 133.828 130.685L134.294 129.8ZM130.869 128.456L131.126 127.489C129.998 127.19 128.856 127.04 127.701 127.04V128.04V129.04C128.68 129.04 129.65 129.167 130.613 129.423L130.869 128.456ZM127.701 128.04V127.04C126.821 127.04 126.005 127.217 125.293 127.615L125.782 128.488L126.27 129.361C126.624 129.162 127.088 129.04 127.701 129.04V128.04ZM125.782 128.488L125.293 127.615C124.643 127.979 123.981 128.584 123.981 129.512H124.981H125.981C125.981 129.534 125.977 129.558 125.97 129.577C125.964 129.595 125.959 129.597 125.97 129.584C125.995 129.551 126.075 129.47 126.27 129.361L125.782 128.488ZM124.981 129.512H123.981C123.981 130.082 124.202 130.617 124.677 130.997L125.301 130.216L125.926 129.435C125.929 129.437 125.937 129.444 125.946 129.456C125.956 129.469 125.965 129.483 125.972 129.498C125.986 129.53 125.981 129.541 125.981 129.512H124.981ZM125.301 130.216L124.713 131.025C125.158 131.348 125.677 131.472 126.198 131.472V130.472V129.472C125.993 129.472 125.915 129.426 125.89 129.407L125.301 130.216ZM126.198 130.472V131.472C126.609 131.472 127.149 131.436 127.801 131.371L127.701 130.376L127.602 129.381C126.974 129.444 126.511 129.472 126.198 129.472V130.472ZM127.701 130.376L127.77 131.374C129.323 131.267 130.457 131.216 131.189 131.216V130.216V129.216C130.386 129.216 129.195 129.271 127.633 129.378L127.701 130.376ZM131.189 130.216V131.216C133.317 131.216 134.824 131.578 135.818 132.188L136.341 131.336L136.865 130.484C135.427 129.601 133.499 129.216 131.189 129.216V130.216ZM136.341 131.336L135.818 132.188C136.712 132.737 137.165 133.54 137.165 134.76H138.165H139.165C139.165 132.908 138.403 131.429 136.865 130.484L136.341 131.336ZM138.165 134.76H137.165C137.165 136.756 136.42 138.077 134.974 138.92L135.478 139.784L135.981 140.648C138.119 139.401 139.165 137.372 139.165 134.76H138.165ZM135.478 139.784L134.981 138.916C133.4 139.819 131.121 140.32 128.053 140.32V141.32V142.32C131.3 142.32 133.971 141.797 135.974 140.652L135.478 139.784ZM161.461 123.528L162.391 123.897L162.933 122.528H161.461V123.528ZM160.725 125.384L159.795 125.015L159.792 125.024L159.789 125.032L160.725 125.384ZM154.357 141L155.269 141.41L155.271 141.405L154.357 141ZM149.365 147.144L148.788 146.327L148.783 146.331L149.365 147.144ZM141.173 149.384L140.198 149.607L140.373 150.369L141.154 150.384L141.173 149.384ZM140.149 145.224L139.181 145.476L139.183 145.484L139.185 145.491L140.149 145.224ZM139.125 142.248L139.355 141.275L137.431 140.82L138.205 142.64L139.125 142.248ZM146.389 141.608L146.972 142.421L147.572 141.99L147.337 141.289L146.389 141.608ZM143.669 134.248L142.74 134.618V134.618L143.669 134.248ZM139.125 123.528V122.528H137.594L138.209 123.93L139.125 123.528ZM146.709 123.528L147.681 123.295L147.497 122.528H146.709V123.528ZM147.765 127.24L146.812 127.543V127.543L147.765 127.24ZM149.109 131.304L150.063 131.003L150.059 130.991L150.055 130.978L149.109 131.304ZM149.717 133.16L148.768 133.476L148.773 133.491L148.779 133.506L149.717 133.16ZM150.421 135.208L149.465 135.502L150.389 138.504L151.371 135.521L150.421 135.208ZM151.253 132.68L150.308 132.353L150.305 132.36L150.303 132.367L151.253 132.68ZM154.101 123.528V122.528H153.284L153.121 123.329L154.101 123.528ZM161.461 123.528L160.531 123.159L159.795 125.015L160.725 125.384L161.655 125.753L162.391 123.897L161.461 123.528ZM160.725 125.384L159.789 125.032C157.769 130.413 155.653 135.6 153.443 140.595L154.357 141L155.271 141.405C157.498 136.373 159.628 131.15 161.661 125.736L160.725 125.384ZM154.357 141L153.445 140.59C152.362 142.996 150.81 144.9 148.788 146.327L149.365 147.144L149.942 147.961C152.272 146.316 154.048 144.124 155.269 141.41L154.357 141ZM149.365 147.144L148.783 146.331C146.819 147.736 144.313 148.445 141.192 148.384L141.173 149.384L141.154 150.384C144.604 150.451 147.559 149.666 149.947 147.957L149.365 147.144ZM141.173 149.384L142.148 149.161C141.741 147.385 141.396 145.981 141.113 144.957L140.149 145.224L139.185 145.491C139.457 146.472 139.794 147.842 140.198 149.607L141.173 149.384ZM140.149 145.224L141.117 144.972C140.847 143.939 140.49 142.901 140.045 141.856L139.125 142.248L138.205 142.64C138.614 143.6 138.939 144.546 139.181 145.476L140.149 145.224ZM139.125 142.248L138.895 143.221C140.131 143.513 141.307 143.664 142.421 143.664V142.664V141.664C141.487 141.664 140.466 141.537 139.355 141.275L139.125 142.248ZM142.421 142.664V143.664C144.217 143.664 145.767 143.285 146.972 142.421L146.389 141.608L145.806 140.795C145.048 141.339 143.953 141.664 142.421 141.664V142.664ZM146.389 141.608L147.337 141.289C146.562 138.987 145.649 136.516 144.598 133.878L143.669 134.248L142.74 134.618C143.78 137.228 144.68 139.664 145.441 141.927L146.389 141.608ZM143.669 134.248L144.598 133.878C143.546 131.238 142.027 127.653 140.041 123.126L139.125 123.528L138.209 123.93C140.191 128.448 141.701 132.01 142.74 134.618L143.669 134.248ZM139.125 123.528V124.528H146.709V123.528V122.528H139.125V123.528ZM146.709 123.528L145.737 123.761C146 124.858 146.359 126.119 146.812 127.543L147.765 127.24L148.718 126.937C148.275 125.545 147.93 124.331 147.681 123.295L146.709 123.528ZM147.765 127.24L146.812 127.543C147.262 128.958 147.713 130.32 148.163 131.63L149.109 131.304L150.055 130.978C149.609 129.685 149.164 128.338 148.718 126.937L147.765 127.24ZM149.109 131.304L148.155 131.605C148.286 132.018 148.491 132.643 148.768 133.476L149.717 133.16L150.666 132.844C150.389 132.013 150.188 131.4 150.063 131.003L149.109 131.304ZM149.717 133.16L148.779 133.506C149.074 134.307 149.302 134.971 149.465 135.502L150.421 135.208L151.377 134.914C151.199 134.336 150.958 133.635 150.655 132.814L149.717 133.16ZM150.421 135.208L151.371 135.521L152.203 132.993L151.253 132.68L150.303 132.367L149.471 134.895L150.421 135.208ZM151.253 132.68L152.198 133.007C153.793 128.392 154.767 125.276 155.081 123.727L154.101 123.528L153.121 123.329C152.838 124.724 151.913 127.71 150.308 132.353L151.253 132.68ZM154.101 123.528V124.528H161.461V123.528V122.528H154.101V123.528Z" fill="#89D089" fill-opacity="0.37" mask="url(#path-25-outside-1_38_321)"/>
</svg>
